<svg xmlns="http://www.w3.org/2000/svg"><symbol id="icon-bag" viewBox="0 0 256 256"><path d="M213.4 65.2l-42-21.8-86.8.3-42 21.9-14.6 147 200-.3zm-56.9 31.4c-7 5.9-16.5 8.8-28.3 8.8-26 0-41-14.6-41-40.2h19c0 8 2 13.7 5.8 16.9s8.9 4.3 16.2 4.3c15.6 0 22-6.1 22-21.2h18.9c0 13.9-4.2 24.4-12.6 31.4z"/></symbol><symbol id="icon-facebook" viewBox="0 0 256 256"><path d="M128 28.1a99.9 99.9 0 0 0-3.5 199.8v-72.1h-24.3v-29.6h24.3v-24.7a32.7 32.7 0 0 1 32.7-32.7h25.5v26.5h-18.3a10.4 10.4 0 0 0-10.3 10.4v20.5h28.1l-3.9 29.6h-24.2v68.7A99.9 99.9 0 0 0 128 28.1z"/></symbol><symbol id="icon-down" viewBox="0 0 256 256"><path d="M159.8 127.9V28.1H96.2v99.8H28l100 100 100-100h-68.2z"/></symbol><symbol id="icon-left" viewBox="0 0 256 256"><path d="M128.1 159.8H228V96.2h-99.9V27.9L28 128l100.1 100.1v-68.3z"/></symbol><symbol id="icon-instagram" viewBox="0 0 256 256"><path d="M128 28a100 100 0 1 0 100 100A100 100 0 0 0 128 28zm56.7 121.3a35.5 35.5 0 0 1-35.4 35.4h-42.6a35.5 35.5 0 0 1-35.4-35.4v-42.6a35.5 35.5 0 0 1 35.4-35.4h42.6a35.5 35.5 0 0 1 35.4 35.4z"/><path d="M149.3 81.9h-42.6a24.9 24.9 0 0 0-24.8 24.8v42.6a24.9 24.9 0 0 0 24.8 24.8h42.6a24.9 24.9 0 0 0 24.8-24.8v-42.6a24.9 24.9 0 0 0-24.8-24.8zM128 156.3a28.3 28.3 0 1 1 28.3-28.3 28.2 28.2 0 0 1-28.3 28.3zm30.5-55a3.8 3.8 0 1 1 3.8-3.8 3.8 3.8 0 0 1-3.8 3.8z"/><circle cx="128" cy="128" r="17.7"/></symbol><symbol id="icon-right" viewBox="0 0 256 256"><path d="M127.9 96.2H28v63.6h99.9v68.3L228 128 127.9 27.9v68.3z"/></symbol><symbol id="icon-search" viewBox="0 0 256 256"><path d="M182.9 162.6a85.8 85.8 0 1 0-20.4 20.3l45.1 45.1 20.4-20.4zm-69.6 7.2a56.5 56.5 0 1 1 56.5-56.5 55.6 55.6 0 0 1-7.7 28.4 57 57 0 0 1-20.4 20.4 55.6 55.6 0 0 1-28.4 7.7z"/></symbol><symbol id="icon-ticket" viewBox="0 0 256 256"><path d="M200.3 66.6l-5.5-13.2-111 46.6 33.2 79.1 111-46.6-5.5-13.2a28.6 28.6 0 1 1-22.2-52.7zM28 123.5l5.4 12.9a28.9 28.9 0 1 1 22.4 53.3l5.4 12.9 41-17.2-33.3-79.1z"/></symbol><symbol id="icon-play" viewBox="0 0 256 256"><path d="M128 28a100 100 0 1 0 100 100A100 100 0 0 0 128 28zm-24.4 148.9V79.1l69.1 48.9z"/></symbol><symbol id="icon-twitter" viewBox="0 0 256 256"><path d="M128 28a100 100 0 1 0 100 100A100 100 0 0 0 128 28zm51.4 79.9v3.1c0 31.8-24.2 68.3-68.4 68.3a67.8 67.8 0 0 1-36.8-10.7 54.4 54.4 0 0 0 5.7.3 47.6 47.6 0 0 0 29.8-10.3 24 24 0 0 1-22.4-16.7 23 23 0 0 0 4.5.5 22.5 22.5 0 0 0 6.4-.9A24 24 0 0 1 79 118v-.3a23.3 23.3 0 0 0 10.9 3 23.9 23.9 0 0 1-10.7-20 24.8 24.8 0 0 1 3.2-12.1 68.2 68.2 0 0 0 49.6 25.1 24.3 24.3 0 0 1-.7-5.5 24.1 24.1 0 0 1 41.6-16.4 50.5 50.5 0 0 0 15.3-5.8 24.6 24.6 0 0 1-10.6 13.3 48.6 48.6 0 0 0 13.8-3.8 48.8 48.8 0 0 1-12 12.4z"/></symbol><symbol id="icon-reel" viewBox="0 0 256 256"><path d="M128 28a100 100 0 1 0 100 100A100 100 0 0 0 128 28zM71.6 147a19 19 0 1 1 19-19 19 19 0 0 1-19 19zm56.4 56.9a19 19 0 1 1 19-18.9 19 19 0 0 1-19 18.9zm0-113.3a19 19 0 1 1 19-19 19 19 0 0 1-19 19zm56.4 56.4a19 19 0 1 1 19-19 19 19 0 0 1-19 19z"/></symbol><symbol id="icon-time" viewBox="0 0 256 256"><path d="M128 28a100 100 0 1 0 100 100A100 100 0 0 0 128 28zm20.1 99.7v20.4H66.2v-20.4h61.5V66.2h20.4z"/></symbol></svg>