<svg xmlns="http://www.w3.org/2000/svg" width="72" height="69" viewBox="0 0 72 69"><title>Artboard 8</title><g id="_01-SINGLE-GREY" data-name="01-SINGLE-GREY"><path id="Instagram" d="M42.5,11.4h-28a4.4,4.4,0,0,0-4.3,4.4V43.7a4.4,4.4,0,0,0,4.3,4.4h28a4.4,4.4,0,0,0,4.3-4.4V15.8A4.4,4.4,0,0,0,42.5,11.4Zm-6,5.8A1.1,1.1,0,0,1,37.6,16h3.5a1.1,1.1,0,0,1,1.1,1.2v3.4a1.1,1.1,0,0,1-1.1,1.1H37.6a1.1,1.1,0,0,1-1.1-1.1Zm-8,5.6a7,7,0,1,1,0,14,7,7,0,0,1,0-14ZM43.4,43.5a1.2,1.2,0,0,1-1.2,1.2H14.7a1.2,1.2,0,0,1-1.1-1.2V26.3h4.6a7.2,7.2,0,0,0-.8,3.5,11.2,11.2,0,0,0,22.3,0,6.3,6.3,0,0,0-.9-3.5h4.6Z"/></g></svg>