<svg xmlns="http://www.w3.org/2000/svg" width="36.7" height="36.7" viewBox="0 0 36.7 36.7"><title>Artboard 9</title><g id="_01-SINGLE-GREY" data-name="01-SINGLE-GREY"><path id="Instagram" d="M32.3,0H4.4A4.4,4.4,0,0,0,0,4.3v28a4.4,4.4,0,0,0,4.4,4.4H32.3a4.4,4.4,0,0,0,4.4-4.4V4.3A4.4,4.4,0,0,0,32.3,0ZM26.4,5.7a1.1,1.1,0,0,1,1.1-1.1h3.4a1.1,1.1,0,0,1,1.2,1.1V9.2a1.1,1.1,0,0,1-1.2,1.1H27.5a1.1,1.1,0,0,1-1.1-1.1Zm-8,5.6a7,7,0,0,1,7,7.1,7,7,0,0,1-7,7,7,7,0,0,1-7.1-7A7.1,7.1,0,0,1,18.4,11.3ZM33.2,32.1a1.1,1.1,0,0,1-1.1,1.1H4.6a1.2,1.2,0,0,1-1.2-1.1V14.9H8a7.2,7.2,0,0,0-.8,3.5,11.2,11.2,0,0,0,22.3,0,5.6,5.6,0,0,0-.9-3.5h4.6Z"/></g></svg>