<?xml version="1.0" encoding="utf-8"?>
<!-- Generator: Adobe Illustrator 23.0.2, SVG Export Plug-In . SVG Version: 6.00 Build 0)  -->
<svg version="1.1" id="Layer_1" xmlns="http://www.w3.org/2000/svg" xmlns:xlink="http://www.w3.org/1999/xlink" x="0px" y="0px"
	 viewBox="0 0 260 64" style="enable-background:new 0 0 260 64;" xml:space="preserve">
<style type="text/css">
	.st0{fill:#F9B01E;}
	.st1{fill:#FFFFFF;}
</style>
<title>logo-260-C</title>
<g>
	<path class="st0" d="M93.4,41.3v21.2h-3V41.3h-6.7v-2.8h16.4v2.8H93.4z"/>
	<path class="st0" d="M110.3,62.9c-1.7,0-3.3-0.3-4.8-1.1c-1.3-0.7-2.4-1.7-3.2-2.9c-0.8-1.2-1.3-2.6-1.7-4c-0.7-3-0.7-6,0-9
		c0.4-1.4,0.9-2.7,1.7-3.9c0.8-1.2,1.9-2.3,3.2-2.9c1.5-0.7,3.1-1.1,4.8-1.1c1.4,0,2.7,0.2,4,0.7c1.1,0.4,2.1,1.1,2.9,1.9
		c0.8,0.8,1.4,1.8,1.9,2.9c0.5,1.1,0.9,2.2,1.1,3.4c0.4,2.4,0.4,4.8,0,7.1c-0.2,1.2-0.6,2.3-1.1,3.4c-0.5,1.1-1.1,2-1.9,2.9
		s-1.9,1.5-3,2C113,62.7,111.6,62.9,110.3,62.9z M107,59.3c1,0.6,2.2,0.8,3.3,0.8c1.2,0,2.3-0.3,3.3-0.9c0.9-0.6,1.7-1.4,2.2-2.3
		c0.5-1,0.9-2,1.2-3.1c0.3-1.1,0.4-2.2,0.4-3.3c0-1.6-0.2-3.1-0.6-4.6c-0.4-1.4-1.2-2.6-2.3-3.6c-1.2-1-2.6-1.5-4.2-1.5
		c-1.2,0-2.3,0.3-3.3,0.9c-0.9,0.6-1.7,1.4-2.2,2.3c-0.5,1-0.9,2-1.2,3.1c-0.3,1.1-0.4,2.2-0.4,3.4s0.1,2.4,0.4,3.5
		c0.2,1.1,0.6,2.1,1.2,3C105.3,57.9,106,58.7,107,59.3z"/>
	<path class="st0" d="M123,38.4h6.6c1.8,0,3.6,0.3,5.2,1c1.4,0.6,2.6,1.6,3.5,2.8c0.8,1.2,1.4,2.5,1.8,3.9c0.4,1.4,0.6,2.9,0.6,4.4
		c0,1.4-0.2,2.9-0.6,4.2c-0.4,1.4-1,2.6-1.8,3.8c-0.9,1.3-2.1,2.3-3.5,2.9c-1.7,0.8-3.6,1.1-5.4,1.1H123V38.4z M129.9,59.7
		c1.3,0,2.6-0.2,3.7-0.8c1-0.5,1.9-1.3,2.5-2.2s1-1.9,1.2-2.9c0.3-1.1,0.4-2.2,0.4-3.3c0-1.5-0.2-3.1-0.7-4.5s-1.3-2.5-2.5-3.4
		s-2.7-1.4-4.3-1.4H126v18.5C126,59.7,129.9,59.7,129.9,59.7z"/>
	<path class="st0" d="M157.5,62.5l-2.1-5.9h-9.6l-2,5.9h-3.1l8.5-24.1h2.8l8.5,24.1H157.5z M154.5,54l-3.1-8.9
		c-0.4-1.1-0.6-1.9-0.8-2.4c-0.2,0.9-0.5,1.7-0.8,2.4l-3.1,8.9H154.5z"/>
	<path class="st0" d="M165,62.5V53l-8.2-14.6h3.4l6.3,11.7l6.4-11.7h3.3L168,53v9.5H165z"/>
</g>
<g>
	<path class="st1" d="M34.5,5.9c-0.5,0.5-1.2,0.8-2,0.8c-1.5,0-2.8-1.3-2.8-2.8c0-0.8,0.3-1.5,0.8-2s1.3-0.8,2-0.8
		c0.8,0,1.5,0.3,2,0.8s0.8,1.2,0.8,2C35.4,4.7,35.1,5.4,34.5,5.9z M30.2,30V9.5h4.7V30H30.2z"/>
	<path class="st1" d="M53.6,30V18.3c0-3.2-1.3-4.8-3.8-4.8c-2.8,0-4.2,1.6-4.2,4.7V30h-4.7V9.5h4.7v1.9C46.9,9.9,48.9,9,51,9.1
		c1.9-0.1,3.8,0.6,5.2,2c1.3,1.3,2,3.5,2,6.4V30H53.6z"/>
	<path class="st1" d="M72.5,30.5c-2.6,0.1-5.1-0.9-6.9-2.9c-1.8-2.2-2.7-5-2.5-7.9c-0.2-2.8,0.8-5.6,2.6-7.8c1.8-1.9,4.3-3,6.9-2.9
		c2.4-0.1,4.7,0.8,6.4,2.4c1.7,1.6,2.5,4,2.5,7.2c0,1,0,1.9-0.2,2.9H67.7c0,1.3,0.6,2.5,1.5,3.5c0.9,0.9,2.1,1.3,3.3,1.3
		c1.7,0.1,3.3-0.7,4.3-2.1l3,3C78,29.4,75.3,30.6,72.5,30.5z M67.7,17.7h9c0-1.2-0.5-2.4-1.4-3.3c-0.8-0.8-1.8-1.2-2.9-1.1
		c-1.2,0-2.4,0.3-3.3,1.1C68.2,15.2,67.7,16.4,67.7,17.7z"/>
	<path class="st1" d="M110.2,30V18.3c0-3.2-1.2-4.8-3.5-4.8c-1.1-0.1-2.1,0.4-2.8,1.2c-0.7,1.1-1.1,2.3-1,3.6V30h-4.7V18.3
		c0-3.2-1.2-4.8-3.5-4.8c-1.1-0.1-2.1,0.4-2.8,1.2c-0.7,1.1-1.1,2.3-1,3.6V30h-4.7V9.5h4.7v1.9c1.2-1.6,3-2.5,5-2.4
		c2.2-0.2,4.3,1,5.4,2.9c1.3-1.9,3.4-2.9,6.2-2.9c2-0.1,4,0.6,5.5,1.9c1.3,1.3,2,3.3,2,6v13h-4.8V30z"/>
	<path class="st1" d="M132.3,30v-1.7c-1.4,1.4-3.4,2.2-5.4,2.1c-1.9,0.1-3.8-0.6-5.3-1.8c-1.4-1.3-2.2-3.1-2.1-5
		c-0.1-2,0.8-3.8,2.3-5c1.6-1.2,3.6-1.8,5.7-1.7c1.7-0.1,3.3,0.3,4.8,1v-1.1c0.1-1-0.3-2.1-1-2.8c-0.9-0.7-1.9-1-3-0.9
		c-2.2,0-4.3,0.7-6.1,1.9l-1.4-3.8c3.2-2,7.1-2.7,10.8-2c0.9,0.2,1.7,0.5,2.5,1c0.9,0.6,1.6,1.4,2,2.4c0.5,1.3,0.8,2.7,0.7,4.1V30
		H132.3z M127.8,26.4c1.7,0,3.4-0.7,4.6-2v-2.6c-1.3-0.6-2.7-0.9-4.1-0.8c-1,0-2.1,0.2-3,0.7c-0.8,0.4-1.2,1.2-1.2,2.1
		c0,0.8,0.3,1.5,1,2C125.9,26.2,126.8,26.4,127.8,26.4L127.8,26.4z"/>
	<path class="st1" d="M148.5,30.5c-3.2,0-4.8-1.7-4.8-5.2V13.6h-3V9.5h3V3.3l4.7-2.2v8.4h4.7v4.1h-4.7v10.7c0,1.3,0.6,2,1.7,2
		c1.1,0,2.2-0.3,3.2-0.9l-0.6,4.2C151.4,30.2,150,30.5,148.5,30.5z"/>
	<path class="st1" d="M180.4,30V9.5h4.7v2.1c0.7-1.7,2.4-2.7,4.2-2.6c1.4,0,2.8,0.5,3.8,1.4l-0.7,4.3c-1-0.7-2.2-1.1-3.5-1.1
		c-1,0-2,0.4-2.7,1.1c-0.8,1.1-1.3,2.4-1.1,3.8V30H180.4z"/>
	<path class="st1" d="M200.9,5.9c-0.5,0.5-1.2,0.8-2,0.8c-1.5,0-2.8-1.3-2.8-2.8l0,0c0-0.8,0.3-1.5,0.8-2s1.3-0.8,2-0.8
		c0.8,0,1.5,0.3,2,0.8s0.8,1.2,0.8,2S201.4,5.4,200.9,5.9z M196.5,30V9.5h4.7V30H196.5z"/>
	<path class="st1" d="M219.7,30v-2c-1.3,1.6-3.3,2.5-5.4,2.4c-1.9,0.1-3.8-0.6-5.2-2c-1.3-1.3-2-3.5-2-6.4V9.5h4.7v11.7
		c0,3.2,1.3,4.8,3.8,4.8c2.8,0,4.1-1.6,4.1-4.7V9.5h4.7V30H219.7z"/>
	<path class="st1" d="M254.4,30V18.3c0-3.2-1.2-4.8-3.5-4.8c-1.1-0.1-2.1,0.4-2.8,1.2c-0.7,1.1-1.1,2.3-1,3.6V30h-4.7V18.3
		c0-3.2-1.2-4.8-3.5-4.8c-1.1-0.1-2.1,0.4-2.8,1.2c-0.7,1.1-1.1,2.3-1,3.6V30h-4.7V9.5h4.7v1.9c1.2-1.6,3-2.5,5-2.4
		c2.2-0.2,4.3,1,5.4,2.9c1.3-1.9,3.4-2.9,6.2-2.9c2-0.1,3.9,0.6,5.4,1.9c1.3,1.3,2,3.3,2,6v13h-4.7V30z"/>
	<circle class="st0" cx="166.2" cy="11.4" r="2.8"/>
	<circle class="st0" cx="159" cy="15.6" r="2.8"/>
	<circle class="st0" cx="159" cy="23.9" r="2.8"/>
	<circle class="st0" cx="166.2" cy="28" r="2.8"/>
	<circle class="st0" cx="173.4" cy="23.9" r="2.8"/>
	<circle class="st0" cx="173.4" cy="15.6" r="2.8"/>
	<path class="st1" d="M23.4,21.6l3.8,2.8c-4.5,6.6-13.5,8.2-20.1,3.7S-1.1,14.5,3.5,8s13.5-8.2,20-3.7c1.5,1,2.7,2.3,3.7,3.7l-3.7,3
		c-2.9-4.5-8.9-5.9-13.4-3.1S4.2,16.8,7,21.3s8.9,5.9,13.4,3.1C21.7,23.7,22.7,22.7,23.4,21.6z"/>
</g>
</svg>
