<svg id="Layer_1" data-name="Layer 1" xmlns="http://www.w3.org/2000/svg" viewBox="0 0 260 64"><defs><style>.cls-1{fill:#fff;}.cls-2{fill:#f9b01e;}</style></defs><title>logo-256-left</title><path class="cls-1" d="M34.54,5.92a2.64,2.64,0,0,1-2,.82,2.8,2.8,0,0,1-2.8-2.8,2.64,2.64,0,0,1,.82-2,2.72,2.72,0,0,1,2-.8,2.62,2.62,0,0,1,2,.8,2.62,2.62,0,0,1,.8,2A2.72,2.72,0,0,1,34.54,5.92ZM30.22,30V9.54H34.9V30Z"/><path class="cls-1" d="M53.58,30V18.26c0-3.18-1.26-4.76-3.8-4.76q-4.16,0-4.16,4.68V30H40.94V9.54h4.68v1.92A6.68,6.68,0,0,1,51,9.06a7.09,7.09,0,0,1,5.22,2q2,2,2,6.36V30Z"/><path class="cls-1" d="M72.5,30.46a8.8,8.8,0,0,1-6.9-2.86,11.45,11.45,0,0,1-2.54-7.86,11.32,11.32,0,0,1,2.56-7.82A8.77,8.77,0,0,1,72.5,9.06a8.77,8.77,0,0,1,6.42,2.44q2.51,2.43,2.5,7.16a22.25,22.25,0,0,1-.16,2.88H67.7A5,5,0,0,0,69.2,25a4.61,4.61,0,0,0,3.3,1.32,5.12,5.12,0,0,0,4.32-2.12l3,3A9,9,0,0,1,72.5,30.46Zm-4.76-12.8h9a4.87,4.87,0,0,0-1.36-3.34,4.08,4.08,0,0,0-2.92-1.14,4.91,4.91,0,0,0-3.3,1.1A4.67,4.67,0,0,0,67.74,17.66Z"/><path class="cls-1" d="M110.22,30V18.26c0-3.18-1.16-4.76-3.48-4.76a3.46,3.46,0,0,0-2.82,1.22,5.52,5.52,0,0,0-1,3.62V30H98.22V18.26c0-3.18-1.16-4.76-3.48-4.76a3.46,3.46,0,0,0-2.82,1.22,5.52,5.52,0,0,0-1,3.62V30H86.22V9.54H90.9v1.88a5.86,5.86,0,0,1,5-2.36,5.63,5.63,0,0,1,5.36,2.88q2-2.88,6.16-2.88a7.61,7.61,0,0,1,5.46,1.9q2,1.9,2,6V30Z"/><path class="cls-1" d="M132.34,30V28.34a7.21,7.21,0,0,1-5.44,2.12,7.93,7.93,0,0,1-5.34-1.78,6.29,6.29,0,0,1-2.06-5,5.86,5.86,0,0,1,2.34-5,9.28,9.28,0,0,1,5.66-1.72A9.77,9.77,0,0,1,132.34,18V16.9a3.62,3.62,0,0,0-1-2.84,4.39,4.39,0,0,0-3-.88,10.42,10.42,0,0,0-6.08,1.92l-1.44-3.8a15.41,15.41,0,0,1,10.82-2,8.25,8.25,0,0,1,2.52,1,5,5,0,0,1,2,2.4,10.14,10.14,0,0,1,.72,4.08V30Zm-4.56-3.64a6.06,6.06,0,0,0,4.56-2V21.74a9.35,9.35,0,0,0-4.08-.84,5.93,5.93,0,0,0-3,.68,2.26,2.26,0,0,0-1.16,2.08,2.33,2.33,0,0,0,1,2A4.54,4.54,0,0,0,127.78,26.34Z"/><path class="cls-1" d="M148.5,30.46q-4.75,0-4.76-5.24V13.62h-3V9.54h3V3.34l4.68-2.24V9.54h4.72v4.08h-4.72V24.3c0,1.3.58,2,1.72,2a6.55,6.55,0,0,0,3.2-.92l-.56,4.2A9.18,9.18,0,0,1,148.5,30.46Z"/><path class="cls-1" d="M180.38,30V9.54h4.68v2.12a4.3,4.3,0,0,1,4.2-2.6,5.64,5.64,0,0,1,3.8,1.4l-.68,4.28a5.84,5.84,0,0,0-3.48-1.08,3.71,3.71,0,0,0-2.72,1.12,5.21,5.21,0,0,0-1.12,3.76V30Z"/><path class="cls-1" d="M200.86,5.92a2.64,2.64,0,0,1-2,.82,2.8,2.8,0,0,1-2.8-2.8,2.64,2.64,0,0,1,.82-2,2.72,2.72,0,0,1,2-.8,2.62,2.62,0,0,1,2,.8,2.62,2.62,0,0,1,.8,2A2.72,2.72,0,0,1,200.86,5.92ZM196.54,30V9.54h4.68V30Z"/><path class="cls-1" d="M219.7,30V28a6.42,6.42,0,0,1-5.36,2.44,7.16,7.16,0,0,1-5.24-2q-2-2-2-6.38V9.54h4.68V21.22q0,4.76,3.84,4.76,4.13,0,4.12-4.68V9.54h4.68V30Z"/><path class="cls-1" d="M254.38,30V18.26c0-3.18-1.16-4.76-3.48-4.76a3.46,3.46,0,0,0-2.82,1.22,5.52,5.52,0,0,0-1,3.62V30h-4.68V18.26c0-3.18-1.16-4.76-3.48-4.76a3.46,3.46,0,0,0-2.82,1.22,5.52,5.52,0,0,0-1,3.62V30h-4.68V9.54h4.68v1.88a5.85,5.85,0,0,1,5-2.36,5.64,5.64,0,0,1,5.36,2.88q2-2.88,6.16-2.88A7.64,7.64,0,0,1,257,11q2,1.9,2,6V30Z"/><path class="cls-2" d="M12.9,41.28V62.49h-3V41.28H3.21V38.43H19.6v2.85Z"/><path class="cls-2" d="M31.05,62.9a10,10,0,0,1-4.76-1.08,8.3,8.3,0,0,1-3.2-2.92,14.2,14.2,0,0,1-1.7-4,18.56,18.56,0,0,1,0-9A14.14,14.14,0,0,1,23.09,42a8.22,8.22,0,0,1,3.2-2.92A10,10,0,0,1,31.05,38a10.44,10.44,0,0,1,4,.72,8.35,8.35,0,0,1,2.92,1.92,10.49,10.49,0,0,1,1.93,2.86A14.36,14.36,0,0,1,41,46.88,20.13,20.13,0,0,1,41,54a14.44,14.44,0,0,1-1.1,3.37,10.81,10.81,0,0,1-1.93,2.86A8.35,8.35,0,0,1,35,62.18,10.44,10.44,0,0,1,31.05,62.9Zm-3.32-3.64a6.51,6.51,0,0,0,3.32.82,6.31,6.31,0,0,0,3.33-.87,6.15,6.15,0,0,0,2.24-2.32,12,12,0,0,0,1.17-3.08,15,15,0,0,0,.38-3.35,15.83,15.83,0,0,0-.64-4.62,7.62,7.62,0,0,0-2.3-3.56,6.07,6.07,0,0,0-4.18-1.48,6.17,6.17,0,0,0-3.32.88A6,6,0,0,0,25.52,44a12.68,12.68,0,0,0-1.19,3.08,14.33,14.33,0,0,0-.4,3.37,15.71,15.71,0,0,0,.38,3.5A11,11,0,0,0,25.5,57,6,6,0,0,0,27.73,59.26Z"/><path class="cls-2" d="M44.9,38.43h6.57a12.23,12.23,0,0,1,5.19,1,8.77,8.77,0,0,1,3.51,2.78A12.46,12.46,0,0,1,62,46.06a15.65,15.65,0,0,1,.6,4.4,15.45,15.45,0,0,1-.57,4.24,13.27,13.27,0,0,1-1.78,3.82,8.52,8.52,0,0,1-3.53,2.89,12.65,12.65,0,0,1-5.43,1.08H44.9Zm6.81,21.28a8.16,8.16,0,0,0,3.73-.81,6.06,6.06,0,0,0,2.46-2.2,10.55,10.55,0,0,0,1.25-2.94,13.44,13.44,0,0,0,.4-3.3,13.11,13.11,0,0,0-.73-4.5,7.39,7.39,0,0,0-2.47-3.41,6.73,6.73,0,0,0-4.26-1.37h-4.2V59.71Z"/><path class="cls-2" d="M80.65,62.49l-2.06-5.88H69l-2,5.88H63.88L72.4,38.43h2.79l8.52,24.06Zm-3-8.53-3.09-8.9c-.39-1.12-.64-1.93-.76-2.44-.25.9-.5,1.71-.75,2.44L69.93,54Z"/><path class="cls-2" d="M88.49,62.49V53L80.31,38.43h3.37L90,50.11l6.36-11.68h3.26L91.48,53v9.52Z"/><circle class="cls-2" cx="166.18" cy="11.43" r="2.79"/><circle class="cls-2" cx="159" cy="15.57" r="2.79"/><circle class="cls-2" cx="159" cy="23.87" r="2.79"/><circle class="cls-2" cx="166.18" cy="28.01" r="2.79"/><circle class="cls-2" cx="173.36" cy="23.87" r="2.79"/><circle class="cls-2" cx="173.36" cy="15.57" r="2.79"/><path class="cls-1" d="M23.44,21.58l3.79,2.78A14.43,14.43,0,1,1,27.25,8l-3.66,3a9.72,9.72,0,1,0-.15,10.58Z"/></svg>