<svg id="Layer_1" data-name="Layer 1" xmlns="http://www.w3.org/2000/svg" viewBox="0 0 16 16"><defs><style>.cls-1{stroke:#000;stroke-miterlimit:10;stroke-width:0.07px;}</style></defs><title>logo-16</title><path d="M1.53,12.3a.48.48,0,0,1-.26.07A.66.66,0,0,1,1,12.31a1,1,0,0,1-.25-.18,1.55,1.55,0,0,1-.2-.28,1.52,1.52,0,0,1-.15-.34,2.64,2.64,0,0,1-.12-.4c0-.14,0-.28-.05-.42a2.73,2.73,0,0,1,0-.41A1,1,0,0,1,.4,9.94a.69.69,0,0,1,.25-.26.41.41,0,0,1,.2-.06.39.39,0,0,1,.18,0l.15.11a1,1,0,0,1,.11.17.87.87,0,0,1,.07.17.45.45,0,0,1,0,.16.36.36,0,0,1,0,.15.28.28,0,0,1-.09.1H1.13L1,10.46a.27.27,0,0,0,0-.16,1,1,0,0,0,0-.17A1.2,1.2,0,0,0,1,9.92.23.23,0,0,0,.85,9.8a.17.17,0,0,0-.14,0,.4.4,0,0,0-.17.26,1.37,1.37,0,0,0,0,.47,2.7,2.7,0,0,0,.1.59,2.8,2.8,0,0,0,.26.63A1,1,0,0,0,1,12l.16.12.15,0,.13,0A.57.57,0,0,0,1.59,12a1.42,1.42,0,0,0,.08-.18.59.59,0,0,0,0-.17.86.86,0,0,0,0-.15.11.11,0,0,1,0-.06s0,0,0,0,0,0,0,0a.16.16,0,0,1,0,.06,1.85,1.85,0,0,1,0,.23.93.93,0,0,1,0,.23,1,1,0,0,1-.1.21A.57.57,0,0,1,1.53,12.3Z"/><path d="M1.94,9.47v.07a.14.14,0,0,1,0,.07l0,.06h0a.13.13,0,0,1-.11,0,.17.17,0,0,1,0-.1.43.43,0,0,1,0-.11l.05-.07a0,0,0,0,1,.05,0l.05,0,0,.05Zm0,.73s0,0,0,0L2,10.09,2.07,10l0,0s0,0,0,.06,0,.08,0,.14a.75.75,0,0,1,0,.16c0,.06,0,.1,0,.14l0,.11,0,.13s0,.08,0,.11l.05.07,0,0h0s.07-.06.1-.12,0-.14.07-.22a2,2,0,0,0,.05-.24.82.82,0,0,0,0-.18.08.08,0,0,1,0-.06.05.05,0,0,1,0,0s0,0,0,0,0,0,0,.06a2,2,0,0,1,0,.23l-.06.28a1.83,1.83,0,0,1-.08.25.33.33,0,0,1-.09.14l-.09,0h-.1a.17.17,0,0,1-.1,0L2.21,11a1.94,1.94,0,0,1-.1-.17,1.73,1.73,0,0,1-.1-.24,1.13,1.13,0,0,1-.08-.24A.45.45,0,0,1,1.91,10.2Z"/><path d="M3.87,10.37l-.11,0a.16.16,0,0,1-.1,0,.24.24,0,0,1-.08-.06.31.31,0,0,1-.05-.1.81.81,0,0,1,0-.11.54.54,0,0,1,0-.15c0-.05,0-.1,0-.15s0-.1-.05-.14A.28.28,0,0,0,3.3,9.6s0,0-.06,0a.19.19,0,0,0-.07.08.34.34,0,0,0,0,.12l0,.15c0,.06,0,.11,0,.17s0,.12.05.17,0,.09,0,.13l0,.1,0,.08a.13.13,0,0,1,0,.08.22.22,0,0,1-.05.08.19.19,0,0,1-.07.06s0,0,0,0l0-.07,0-.14c0-.06,0-.11,0-.18a1.09,1.09,0,0,1-.05-.17l0-.14a1.31,1.31,0,0,1-.05-.15l-.06-.2s0,0,0-.05l0,0,0,0,0,0H3a.35.35,0,0,1,0,.06.19.19,0,0,1,0,.07l0,.1a.59.59,0,0,1,0-.13.58.58,0,0,1,0-.14.75.75,0,0,1,.07-.12.28.28,0,0,1,.1-.09.12.12,0,0,1,.1,0,.14.14,0,0,1,.1,0,.3.3,0,0,1,.09.1.52.52,0,0,1,.07.15l0,.13,0,.14s0,.11.05.18a.3.3,0,0,0,0,.1,0,0,0,0,0,.07,0,.23.23,0,0,0,.08-.12L4,9.84A2,2,0,0,0,4,9.6a1.28,1.28,0,0,0,0-.18.64.64,0,0,1,0-.07l0,0,0,0a.12.12,0,0,1,0,.07v.13s0,.11,0,.17l0,.19a1.05,1.05,0,0,1,0,.19.77.77,0,0,1-.07.16A.45.45,0,0,1,3.87,10.37Z"/><path d="M5.22,8.78a1.55,1.55,0,0,1,0,.31,1.32,1.32,0,0,1-.09.3A1.08,1.08,0,0,1,5,9.65a.62.62,0,0,1-.18.18l-.13,0a.43.43,0,0,1-.16,0,.7.7,0,0,1-.17-.09.64.64,0,0,1-.14-.2.66.66,0,0,1-.07-.25,1.29,1.29,0,0,1,0-.28,1,1,0,0,1,.08-.26.47.47,0,0,1,.16-.18.17.17,0,0,1,.16,0,.14.14,0,0,1,.11.09.32.32,0,0,1,0,.16.91.91,0,0,1,0,.17s0,.11-.05.16l-.06.13-.06.14-.05.11a.24.24,0,0,0,.08.09l.09,0h.09l.08,0a.46.46,0,0,0,.15-.16A1.6,1.6,0,0,0,5,9.23,2.5,2.5,0,0,0,5.09,9c0-.08,0-.15,0-.21a.05.05,0,0,1,0,0l0,0s0,0,0,0A.07.07,0,0,1,5.22,8.78Zm-.85,0a.22.22,0,0,0-.06.07l0,.13a1.09,1.09,0,0,0,0,.18,1,1,0,0,0,.06.22.36.36,0,0,1,0-.09l0-.09A1,1,0,0,0,4.49,9a.24.24,0,0,0,0-.13s0-.06,0-.06Z"/><path d="M6.58,8.51a.67.67,0,0,1-.06-.12.88.88,0,0,1,0-.15,1.42,1.42,0,0,1,0-.16,1,1,0,0,1,0-.14.23.23,0,0,0-.06-.09.06.06,0,0,0-.08,0,.14.14,0,0,0-.06.08.64.64,0,0,0,0,.19,1.07,1.07,0,0,0,0,.31,1.81,1.81,0,0,0,.11.43l-.06.08,0,0s-.06,0-.07,0S6,9,6,8.9a.86.86,0,0,1,0-.13,1.94,1.94,0,0,0,0-.2l-.06-.2A1.38,1.38,0,0,0,5.8,8.2l0,0a.07.07,0,0,0-.06,0l-.06.07a.68.68,0,0,0-.06.16,1.2,1.2,0,0,0,0,.27,1.41,1.41,0,0,0,.08.4h0v0s0,0,0,0,0,0,0,0l-.09.13,0,0,0,0,0,0a.19.19,0,0,1,0-.08l-.23-.73a.14.14,0,0,0,0-.07l0-.06,0,0,.06-.07,0,0,0,0s.1,0,.13.1a.84.84,0,0,1,0,.14.85.85,0,0,1,0-.17.75.75,0,0,1,0-.16A.4.4,0,0,1,5.61,8a.2.2,0,0,1,.09-.09.09.09,0,0,1,.08,0,.18.18,0,0,1,.09,0L5.94,8A.75.75,0,0,1,6,8.1a1,1,0,0,1,0-.16.88.88,0,0,1,0-.15.59.59,0,0,1,.06-.14.28.28,0,0,1,.1-.09.16.16,0,0,1,.13,0,.23.23,0,0,1,.11.07.57.57,0,0,1,.08.13.47.47,0,0,1,.06.15l.12.38q0,.13.12.09A.22.22,0,0,0,7,8.22.79.79,0,0,0,7,8a1.13,1.13,0,0,0,0-.25c0-.08,0-.15,0-.2s0,0,0,0h0l0,0a.14.14,0,0,1,0,.06,2.35,2.35,0,0,1,0,.26,1.35,1.35,0,0,1,0,.29A1,1,0,0,1,7,8.39a.4.4,0,0,1-.16.18l-.07,0H6.72l-.07,0A.19.19,0,0,1,6.58,8.51Z"/><path d="M8.43,6.9s0,.11,0,.18l0,.21,0,.2a.84.84,0,0,1,0,.14l0,.06-.06,0-.07,0H8.08L8,7.75,8,7.7a.52.52,0,0,1-.08-.11.53.53,0,0,1,0,.23A.42.42,0,0,1,7.74,8a.46.46,0,0,1-.12.12l-.09,0a.17.17,0,0,1-.11,0A.23.23,0,0,1,7.31,8a.62.62,0,0,1-.1-.2,1.26,1.26,0,0,1,0-.33,1,1,0,0,1,0-.31.75.75,0,0,1,.09-.24.34.34,0,0,1,.12-.12l.13,0a.13.13,0,0,1,.09,0,.21.21,0,0,1,0,.15l0-.05,0,0h0s0,0,0,0,0,0,0,.06,0,.08,0,.13l.07.21,0,0v0l0,0,0,.07,0,0,0,0,0,0a.07.07,0,0,0,.06,0,.14.14,0,0,0,0-.07.4.4,0,0,0,0-.13l0-.16c0-.06,0-.11,0-.16s0-.1,0-.14,0-.07,0-.09a.06.06,0,0,1,0,0h0l0,0A.25.25,0,0,1,8.43,6.9Zm-.66.54a.93.93,0,0,0,0-.13.88.88,0,0,0-.05-.15s0-.08,0-.11l0,0,0,0,0,0,0,0a.19.19,0,0,0,0-.08l0,0,0,0S7.41,7,7.39,7a1.19,1.19,0,0,0,0,.31.51.51,0,0,0,0,.17.75.75,0,0,0,.05.16l.06.11s0,0,.06,0a.09.09,0,0,0,.07,0s0,0,.06-.06a.36.36,0,0,0,0-.09.54.54,0,0,0,0-.1.28.28,0,0,0,0-.09Z"/><path d="M9.24,6.24s0,0,0,0h0l0,0s0,0,0,.06a1.26,1.26,0,0,1,0,.27,2.91,2.91,0,0,1,0,.31c0,.09,0,.18-.08.26a.27.27,0,0,1-.11.14.3.3,0,0,1-.15,0,.28.28,0,0,1-.13,0,.28.28,0,0,1-.11-.08.24.24,0,0,1-.06-.09A1.13,1.13,0,0,1,8.56,7c0-.08-.07-.17-.1-.26l-.12-.32c0-.12-.08-.23-.11-.34l-.08.06-.07,0a.56.56,0,0,1-.16.07l-.13,0s0,0,0,0a.07.07,0,0,1,0,0,.43.43,0,0,0,0,0l0,0,.1,0L8,6l.09-.06.08-.06a1.76,1.76,0,0,1-.06-.25.5.5,0,0,1,0-.15l0,0,.05,0,.05,0h0s0,0,.07.1a1.16,1.16,0,0,1,.1.22l.19-.1.15,0,.11,0H9a0,0,0,0,1,0,0,.08.08,0,0,1,0,0,.11.11,0,0,1,0,0,0,0,0,0,1,0,0l-.07,0-.08,0-.1,0-.15.08,0,0,0,0,0,.09,0,.09c0,.08,0,.17,0,.26s0,.18.05.29,0,.22,0,.34a.44.44,0,0,0,.1.16.14.14,0,0,0,.09,0,.17.17,0,0,0,.1,0A.19.19,0,0,0,9.06,7a.34.34,0,0,0,.06-.15,1.21,1.21,0,0,0,.05-.18c0-.07,0-.13,0-.19a.68.68,0,0,1,0-.15Z"/><path d="M10.11,6a.89.89,0,0,1,0,.22.67.67,0,0,1,0,.2.53.53,0,0,1-.08.17.37.37,0,0,1-.13.12.38.38,0,0,1-.19.06.47.47,0,0,1-.15-.06.68.68,0,0,1-.12-.12l-.09-.14a1.17,1.17,0,0,1,0-.11l0-.13s0-.1,0-.15a.76.76,0,0,1,0-.15.33.33,0,0,1,0-.1.3.3,0,0,1,0-.1.27.27,0,0,1,.07-.08l.09-.07h0l.09,0h.13a.51.51,0,0,1,.15.07.44.44,0,0,1,.13.14l0,0,0,0a1.25,1.25,0,0,0,.08-.12,1,1,0,0,0,.08-.14l.07-.14a.61.61,0,0,0,0-.11l0,0a0,0,0,0,1,0,0s0,0,0,0v.06s0,0,0,.1l-.06.17-.09.19A1.11,1.11,0,0,1,10.11,6Zm-.64-.12,0,0a.56.56,0,0,1,0,.08l.07.06a.16.16,0,0,0,.1,0,.27.27,0,0,0,.13,0h0l0,0,0-.07,0,0-.06-.09a.27.27,0,0,0-.07-.08l-.07,0a.08.08,0,0,0-.07,0,.14.14,0,0,0-.07.08A.34.34,0,0,0,9.47,5.91Zm.1.52.06.09s0,.05.06.06l.07,0a.11.11,0,0,0,.08,0l.07-.07a.29.29,0,0,0,0-.1.37.37,0,0,0,0-.11s0-.07,0-.11l0,0,0,0a.33.33,0,0,1-.19,0,.46.46,0,0,1-.19-.08l0,.11Z"/><path d="M10.65,6.22a.11.11,0,0,1,0,.06l0,0s0,0,0,0,0,0,0-.06V6.15c0-.05,0-.1,0-.16l0-.21c0-.07,0-.14,0-.2a1,1,0,0,0,0-.18V5.28h-.06l0,0a.19.19,0,0,1,0-.09.57.57,0,0,1,0-.13.5.5,0,0,1,0-.13.16.16,0,0,1,.05-.08c.05,0,.09,0,.12,0a.22.22,0,0,1,.09.07.56.56,0,0,1,.05.08.45.45,0,0,1,0,.11h.07l.05,0,0,0,.08,0L11,5l.06,0,0,.06a.25.25,0,0,1,.05.15c0,.06,0,.12,0,.2a.66.66,0,0,0,0,.15.25.25,0,0,0,0,.13l.05,0s0,0,.08,0a.22.22,0,0,0,.07-.09l.06-.14s0-.11,0-.17l0-.17a.71.71,0,0,0,0-.14.34.34,0,0,0,0-.09.08.08,0,0,1,0,0l0,0,0,0s0,0,0,.07v.11c0,.05,0,.11,0,.17l0,.2a1.66,1.66,0,0,1-.06.21.89.89,0,0,1-.08.17.4.4,0,0,1-.1.12l-.12,0-.11,0-.08-.06L11,5.81a.64.64,0,0,1,0-.07.31.31,0,0,0,0-.09V5.47c0-.07,0-.12,0-.17a.3.3,0,0,0,0-.1l0,0h0l0,0h0l0,0-.06,0h-.05v.88A.54.54,0,0,1,10.65,6.22Z"/><path d="M11.6,3.71a.15.15,0,0,1,0,.07s0,.05,0,.07l0,0-.05,0a.15.15,0,0,1-.14-.16.36.36,0,0,1,0-.1s0-.06,0-.07,0,0,.05,0l0,0s0,0,.05,0A.14.14,0,0,1,11.6,3.71Zm0,.72a.09.09,0,0,1,0,0l.06-.06.06,0,0,0,0,0,0,.14a1.36,1.36,0,0,0,0,.17,1.3,1.3,0,0,0,0,.13l0,.12L12,5s0,.07,0,.11,0,0,0,.06l.05,0h0a.29.29,0,0,0,.09-.13,1.13,1.13,0,0,0,.08-.22,2,2,0,0,0,0-.24c0-.07,0-.14,0-.18a.14.14,0,0,1,0-.06h0l0,0s0,0,0,.06a1,1,0,0,1,0,.23,2.33,2.33,0,0,1-.05.28,1.47,1.47,0,0,1-.08.25.27.27,0,0,1-.1.14.19.19,0,0,1-.09,0H12l-.09,0a.23.23,0,0,1-.07-.07.63.63,0,0,1-.1-.17,1.63,1.63,0,0,1-.11-.23c0-.08-.05-.17-.07-.24A.5.5,0,0,1,11.58,4.43Z"/><path d="M13.1,4.83a.35.35,0,0,1-.17.06.32.32,0,0,1-.14,0l-.1-.07-.07-.08a.89.89,0,0,1-.08-.17.58.58,0,0,1-.06-.17.93.93,0,0,1,0-.13s0-.07,0-.08a.77.77,0,0,1,0-.15.25.25,0,0,1,.06-.14l0,0,0,0h0c0,.14,0,.25.06.34s0,.16.05.22l0,.15a.39.39,0,0,0,.12.15s.1,0,.17,0a.27.27,0,0,0,.09-.12.58.58,0,0,0,0-.19.56.56,0,0,1-.05-.08A.8.8,0,0,1,13,4.1a1,1,0,0,1,0-.16l0-.14a.38.38,0,0,1,0-.1.16.16,0,0,1,0-.1L13,3.54l0,0h0a0,0,0,0,1,0,0s0,.07.06.12a1.34,1.34,0,0,1,.07.18,1,1,0,0,1,0,.14s0,.07,0,.1v.12a.59.59,0,0,0,.09.11.17.17,0,0,0,.06.06l0,0a.05.05,0,0,0,0,0,.1.1,0,0,0,.06-.08.58.58,0,0,0,.05-.14s0-.11,0-.17,0-.12,0-.17a.71.71,0,0,0,0-.14V3.58a.08.08,0,0,1,0-.05h0a0,0,0,0,1,0,0,.08.08,0,0,1,0,0,2.62,2.62,0,0,1,0,.27,1.45,1.45,0,0,1,0,.29,1.37,1.37,0,0,1-.07.24.33.33,0,0,1-.13.15.12.12,0,0,1-.13,0,.33.33,0,0,1-.14-.09.46.46,0,0,1,0,.21A.29.29,0,0,1,13.1,4.83Z"/><path d="M15.18,3.39a.52.52,0,0,1-.06-.13l-.06-.15S15,3,15,3a.93.93,0,0,1,0-.13.2.2,0,0,0-.07-.1.06.06,0,0,0-.08,0l-.05.08a.68.68,0,0,0-.06.2,1,1,0,0,0,0,.3,1.7,1.7,0,0,0,.11.43.27.27,0,0,1-.07.08s0,0,0,0l-.07,0s0,0-.05-.1a.63.63,0,0,1,0-.13c0-.06,0-.12-.05-.19a1.72,1.72,0,0,0-.07-.21.67.67,0,0,0-.07-.17s0,0-.05,0a.07.07,0,0,0-.06,0s0,0-.06.07a.68.68,0,0,0-.06.16,2.35,2.35,0,0,0,0,.28,1.91,1.91,0,0,0,.09.39h0V4s0,0,0,0v0l-.09.13s0,0,0,0l0,0-.05,0a.39.39,0,0,1,0-.09l-.23-.73a.64.64,0,0,0,0-.07l0-.06,0,0,.06-.07,0-.05,0,0s.1,0,.13.11l0,.13,0-.17c0-.06,0-.11.05-.16s0-.09.07-.13a.28.28,0,0,1,.1-.09.12.12,0,0,1,.08,0l.09,0,.07.08A.67.67,0,0,1,14.6,3l0-.16c0-.05,0-.1,0-.15s.05-.09.07-.13a.32.32,0,0,1,.1-.1.18.18,0,0,1,.12,0,.26.26,0,0,1,.11.07.38.38,0,0,1,.09.13l.06.15.12.38q0,.13.12.09a.27.27,0,0,0,.1-.14.71.71,0,0,0,.06-.22,2.13,2.13,0,0,0,0-.25,1.91,1.91,0,0,0,0-.2s0,0,0,0,0,0,0,0,0,0,0,0a.08.08,0,0,1,0,.05,2.62,2.62,0,0,1,0,.27,1.35,1.35,0,0,1,0,.28.88.88,0,0,1-.09.26.4.4,0,0,1-.16.18l-.07,0h-.08a.13.13,0,0,1-.08,0A.22.22,0,0,1,15.18,3.39Z"/><path class="cls-1" d="M4.29,12l-.54.19-.11-.31L5,11.38l.11.32-.53.19.58,1.62-.33.11Z"/><path class="cls-1" d="M7.8,10.93a1,1,0,0,1-.61,1.35,1.06,1.06,0,0,1-.72-2A1,1,0,0,1,7.8,10.93Zm-.33.12a.69.69,0,0,0-.89-.45A.72.72,0,0,0,7.07,12,.69.69,0,0,0,7.47,11.05Z"/><path class="cls-1" d="M10.15,9.59a1,1,0,0,1-.61,1.31l-.62.22L8.22,9.2,8.85,9A1,1,0,0,1,10.15,9.59Zm-.34.12A.66.66,0,0,0,9,9.28l-.29.11.47,1.3.29-.11A.65.65,0,0,0,9.81,9.71Z"/><path class="cls-1" d="M10.84,7.55l.33-.15,1.57,1.54-.32.15-.37-.37-.79.36,0,.52L11,9.75Zm.4,1.18.56-.25-.61-.6Z"/><path class="cls-1" d="M14,8.17l-.31.16-.37-.72-1.18-.79.34-.17.86.59,0-1L13.72,6l-.06,1.42Z"/></svg>