<svg id="Layer_1" data-name="Layer 1" xmlns="http://www.w3.org/2000/svg" viewBox="0 0 32 32"><defs><style>.cls-1{stroke:#000;stroke-miterlimit:10;stroke-width:0.14px;}</style></defs><title>logo-32</title><path d="M3.37,24.39a1,1,0,0,1-.5.14,1.23,1.23,0,0,1-.52-.12,1.93,1.93,0,0,1-.49-.35,2.52,2.52,0,0,1-.4-.54,4.64,4.64,0,0,1-.3-.67A5,5,0,0,1,1,22.07a4.59,4.59,0,0,1-.1-.83,3.34,3.34,0,0,1,.06-.78,2.14,2.14,0,0,1,.26-.68,1.41,1.41,0,0,1,.5-.5.73.73,0,0,1,.38-.12.77.77,0,0,1,.34.08,1.05,1.05,0,0,1,.3.22,1.81,1.81,0,0,1,.22.32,2.33,2.33,0,0,1,.14.33,1.91,1.91,0,0,1,.06.33.87.87,0,0,1,0,.28.35.35,0,0,1-.17.19.31.31,0,0,1-.13,0,.4.4,0,0,1-.15,0,.45.45,0,0,1-.2-.11.47.47,0,0,0,.1-.3,1.35,1.35,0,0,0-.06-.35,2.08,2.08,0,0,0-.16-.4A.39.39,0,0,0,2,19.52a.29.29,0,0,0-.26,0,.82.82,0,0,0-.33.51,2.87,2.87,0,0,0-.09.92,5.07,5.07,0,0,0,.2,1.14,5.58,5.58,0,0,0,.5,1.23,1.7,1.7,0,0,0,.31.43.89.89,0,0,0,.31.23.52.52,0,0,0,.29.06A.55.55,0,0,0,3.22,24a.84.84,0,0,0,.27-.26,1.74,1.74,0,0,0,.24-.68,1.52,1.52,0,0,0,0-.28.17.17,0,0,1,0-.12.08.08,0,0,1,.07,0,.18.18,0,0,1,.08.05.17.17,0,0,1,0,.12,3.23,3.23,0,0,1,0,.44,1.63,1.63,0,0,1-.09.45,1.53,1.53,0,0,1-.19.41A1,1,0,0,1,3.37,24.39Z"/><path d="M4.17,18.88a.53.53,0,0,1,0,.13.34.34,0,0,1,0,.14.36.36,0,0,1-.07.1.11.11,0,0,1-.1,0,.26.26,0,0,1-.21-.1.41.41,0,0,1,0-.19.49.49,0,0,1,0-.21.3.3,0,0,1,.08-.14.1.1,0,0,1,.1,0,.22.22,0,0,1,.11.05.45.45,0,0,1,.09.1A.61.61,0,0,1,4.17,18.88Zm0,1.41s0-.06.06-.1l.12-.12L4.42,20l.07,0s0,0,0,.12,0,.16.06.27a3,3,0,0,1,.07.32,2.61,2.61,0,0,0,.06.26c0,.07,0,.14.06.23a1.82,1.82,0,0,0,.07.25,1,1,0,0,0,.08.21.29.29,0,0,0,.09.13.23.23,0,0,0,.1.05.11.11,0,0,0,.08,0,.53.53,0,0,0,.18-.25,3.44,3.44,0,0,0,.14-.42,4.52,4.52,0,0,0,.11-.47c0-.15,0-.27,0-.35a.16.16,0,0,1,0-.11.08.08,0,0,1,.07,0s0,0,.06.05a.16.16,0,0,1,0,.11,4.37,4.37,0,0,1,0,.46,5.17,5.17,0,0,1-.11.54,3.14,3.14,0,0,1-.15.49.74.74,0,0,1-.19.28.48.48,0,0,1-.18.07H5a.62.62,0,0,1-.19-.07.35.35,0,0,1-.14-.13,1.68,1.68,0,0,1-.19-.32c-.08-.15-.14-.3-.21-.46a2.9,2.9,0,0,1-.14-.48A.85.85,0,0,1,4.12,20.29Z"/><path d="M7.94,20.62a.51.51,0,0,1-.22.07.4.4,0,0,1-.19,0,.44.44,0,0,1-.15-.12.59.59,0,0,1-.11-.19,1.89,1.89,0,0,0-.06-.21c0-.09,0-.19-.07-.29l-.09-.3c0-.1-.07-.19-.11-.27a.56.56,0,0,0-.11-.17.09.09,0,0,0-.12,0,.32.32,0,0,0-.13.15,1,1,0,0,0-.09.23,2.43,2.43,0,0,0,0,.3,1.84,1.84,0,0,0,0,.33,3.4,3.4,0,0,0,.1.33c0,.09.05.18.08.25l.06.2c0,.05,0,.11,0,.16a.2.2,0,0,1,0,.14,1,1,0,0,1-.11.17.4.4,0,0,1-.12.11s-.07,0-.08,0l0-.15L6.25,21c0-.11-.07-.22-.1-.34s-.07-.23-.11-.33A1.8,1.8,0,0,0,6,20.08l-.1-.3c0-.12-.07-.25-.12-.39l0-.09.06-.07.07-.06L6,19.12l.07,0a.14.14,0,0,1,.09,0,.65.65,0,0,0,0,.11c0,.05,0,.1,0,.15s0,.12,0,.19a2.6,2.6,0,0,1,0-.26A2,2,0,0,1,6.37,19a.92.92,0,0,1,.13-.24.66.66,0,0,1,.19-.18.31.31,0,0,1,.19,0,.39.39,0,0,1,.2.08.66.66,0,0,1,.18.19,1.26,1.26,0,0,1,.14.31l.07.24c0,.08,0,.17.08.27s.06.23.09.36a.48.48,0,0,0,.09.19c0,.05.08.06.14,0A.43.43,0,0,0,8,20a2.32,2.32,0,0,0,.12-.42c0-.15,0-.3.07-.45a2.87,2.87,0,0,0,0-.36.86.86,0,0,1,0-.13.07.07,0,0,1,.06,0s0,0,.06,0a.39.39,0,0,1,0,.15V19c0,.1,0,.21,0,.33l-.06.38a2.11,2.11,0,0,1-.09.36,1.8,1.8,0,0,1-.14.31A.51.51,0,0,1,7.94,20.62Z"/><path d="M10.58,17.53a4.11,4.11,0,0,1-.08.6,3.68,3.68,0,0,1-.18.59,2.62,2.62,0,0,1-.26.5,1.27,1.27,0,0,1-.36.34.88.88,0,0,1-.26.09.82.82,0,0,1-.31,0,1,1,0,0,1-.33-.17,1.22,1.22,0,0,1-.28-.39,1.68,1.68,0,0,1-.12-.49,2,2,0,0,1,0-.55,1.63,1.63,0,0,1,.16-.5.89.89,0,0,1,.31-.35.45.45,0,0,1,.32-.07.35.35,0,0,1,.21.19.89.89,0,0,1,.08.32,1.66,1.66,0,0,1,0,.32,2.81,2.81,0,0,1-.1.31l-.12.27c0,.09-.08.17-.11.25A2,2,0,0,0,9,19a.57.57,0,0,0,.16.18.47.47,0,0,0,.17.07.37.37,0,0,0,.18,0,.44.44,0,0,0,.16-.06.77.77,0,0,0,.28-.31,2.13,2.13,0,0,0,.2-.46,4.5,4.5,0,0,0,.14-.49c0-.16.06-.3.08-.42a.09.09,0,0,1,0-.08.09.09,0,0,1,.06,0s0,0,.06.05A.27.27,0,0,1,10.58,17.53Zm-1.67,0a.32.32,0,0,0-.1.14.91.91,0,0,0-.06.26,2,2,0,0,0,.13.77A1.22,1.22,0,0,1,9,18.52c0-.05.05-.11.08-.17a1.9,1.9,0,0,0,.12-.45.84.84,0,0,0,0-.26.29.29,0,0,0-.1-.13A.14.14,0,0,0,8.91,17.52Z"/><path d="M13.22,17a1.38,1.38,0,0,1-.11-.24,2.11,2.11,0,0,1-.1-.3c0-.1-.07-.2-.1-.3s-.05-.19-.08-.27a.35.35,0,0,0-.12-.19.14.14,0,0,0-.15,0,.51.51,0,0,0-.11.16,1.34,1.34,0,0,0-.11.38,2.45,2.45,0,0,0,0,.6,3.28,3.28,0,0,0,.23.83,1.27,1.27,0,0,1-.14.17l-.07.06a.18.18,0,0,1-.14,0s-.07-.07-.1-.18,0-.14-.05-.26-.06-.25-.1-.38l-.12-.4a2.63,2.63,0,0,0-.15-.33c0-.06-.07-.09-.11-.1a.1.1,0,0,0-.1,0s-.07.06-.12.13a.74.74,0,0,0-.11.32,1.78,1.78,0,0,0,0,.53,3.39,3.39,0,0,0,.17.77h0l0,.09,0,.08,0,.08-.18.25-.05.05-.07,0s-.06,0-.09,0a.34.34,0,0,1-.08-.16L10.58,17s0-.09,0-.14a.54.54,0,0,1,0-.11l-.06-.08a1.71,1.71,0,0,1,.11-.14l.08-.09.07-.06c.11-.06.19,0,.26.2s.05.15.08.26c0-.11,0-.22.06-.33a2.26,2.26,0,0,1,.1-.31,1.59,1.59,0,0,1,.14-.26.58.58,0,0,1,.18-.17.22.22,0,0,1,.17,0,.4.4,0,0,1,.16.08A.78.78,0,0,1,12,16l.12.23c0-.09,0-.2.05-.3a1.32,1.32,0,0,1,.09-.3,1.13,1.13,0,0,1,.13-.27.55.55,0,0,1,.19-.18.3.3,0,0,1,.24,0,.48.48,0,0,1,.22.14.89.89,0,0,1,.16.25,1.78,1.78,0,0,1,.12.29l.23.75c.06.18.14.24.24.17a.46.46,0,0,0,.2-.27,2.57,2.57,0,0,0,.11-.44,3.93,3.93,0,0,0,.06-.48c0-.16,0-.29,0-.39a.09.09,0,0,1,0-.07l.06,0s0,0,.06,0a.18.18,0,0,1,0,.11c0,.15,0,.32,0,.52a3.6,3.6,0,0,1-.08.56,2.45,2.45,0,0,1-.17.5.87.87,0,0,1-.32.36l-.14.06a.39.39,0,0,1-.15,0,.25.25,0,0,1-.15-.05A.41.41,0,0,1,13.22,17Z"/><path d="M16.83,13.86c0,.09,0,.2,0,.34s0,.27-.05.41a3.91,3.91,0,0,1-.07.39,1.2,1.2,0,0,1-.08.28l-.08.11a.52.52,0,0,1-.11.1.38.38,0,0,1-.13.06.17.17,0,0,1-.12,0,.21.21,0,0,1-.13-.05.58.58,0,0,1-.13-.11,1,1,0,0,1-.15-.21,1,1,0,0,1-.08.45,1.14,1.14,0,0,1-.17.31,1.09,1.09,0,0,1-.25.23.29.29,0,0,1-.17,0,.49.49,0,0,1-.22-.06.89.89,0,0,1-.21-.22,1.18,1.18,0,0,1-.19-.39,2.16,2.16,0,0,1-.1-.66,2.74,2.74,0,0,1,.07-.6,1.63,1.63,0,0,1,.19-.46.59.59,0,0,1,.23-.24.52.52,0,0,1,.26,0,.22.22,0,0,1,.17.09.38.38,0,0,1,.07.29l.1-.09.07,0,0,0s0,0,0,0a.87.87,0,0,1,.05.12l.09.24.14.41,0,.09,0,.08,0,.09L16,15a.41.41,0,0,0,0,.09l.07.09.09,0a.19.19,0,0,0,.1,0,.19.19,0,0,0,.09-.13,1.49,1.49,0,0,0,.07-.25,2.61,2.61,0,0,0,.06-.32c0-.11,0-.22.05-.32s0-.19,0-.27,0-.14,0-.18a.31.31,0,0,1,.05-.1.06.06,0,0,1,.07,0,.18.18,0,0,1,.06.08A.51.51,0,0,1,16.83,13.86Zm-1.28,1.05c0-.08-.05-.16-.08-.26a1.84,1.84,0,0,0-.09-.28l-.08-.23c0-.05,0-.08-.05-.07l-.05,0s0,0,0,.05l-.07.06a.31.31,0,0,0,0-.15A.19.19,0,0,0,15,14l0,0c-.06,0-.1,0-.15.18a1.82,1.82,0,0,0-.05.59,1.37,1.37,0,0,0,0,.34,2.11,2.11,0,0,0,.1.3,1.45,1.45,0,0,0,.12.22c.05.06.08.09.11.1a.19.19,0,0,0,.15,0,.46.46,0,0,0,.12-.12.75.75,0,0,0,.08-.18,1.33,1.33,0,0,0,0-.19,1.55,1.55,0,0,0,0-.17A.25.25,0,0,0,15.55,14.91Z"/><path d="M18.42,12.56a.07.07,0,0,1,0-.06.05.05,0,0,1,.05,0,.1.1,0,0,1,.05,0s0,.06,0,.11a3.45,3.45,0,0,1,0,.54,5.58,5.58,0,0,1-.09.59,2.1,2.1,0,0,1-.16.5.57.57,0,0,1-.2.29.58.58,0,0,1-.3.09.66.66,0,0,1-.25-.05.8.8,0,0,1-.21-.15.72.72,0,0,1-.13-.19c0-.06-.07-.15-.13-.3s-.13-.31-.2-.5l-.23-.63c-.07-.22-.15-.44-.21-.65l-.15.11a.65.65,0,0,1-.15.1,1.23,1.23,0,0,1-.31.14,1,1,0,0,1-.24.05s-.06,0-.07,0a.14.14,0,0,1,0-.09.3.3,0,0,1,0-.1.18.18,0,0,1,.05-.07l.2-.1A1.93,1.93,0,0,0,16,12l.16-.12.15-.12a4,4,0,0,1-.11-.48,1.37,1.37,0,0,1,0-.3.2.2,0,0,1,0-.08.39.39,0,0,1,.1-.08.41.41,0,0,1,.11-.07.12.12,0,0,1,.1,0,.62.62,0,0,1,.13.19,3.13,3.13,0,0,1,.19.43,3.28,3.28,0,0,1,.37-.19,1.83,1.83,0,0,1,.29-.11l.21-.06.12,0s0,0,.07,0a.11.11,0,0,1,0,.08.21.21,0,0,1,0,.11.19.19,0,0,1-.08.07l-.12,0-.15.06-.21.1-.28.15-.06,0-.07.05a.84.84,0,0,0,.05.17c0,.06,0,.12.05.19s.07.32.1.5l.1.55c0,.21.06.44.1.68a.79.79,0,0,0,.19.31.41.41,0,0,0,.18.1.32.32,0,0,0,.19,0,.32.32,0,0,0,.14-.16,1,1,0,0,0,.12-.28,2.11,2.11,0,0,0,.09-.36c0-.12,0-.24.07-.36s0-.22,0-.31S18.41,12.6,18.42,12.56Z"/><path d="M20.11,12.16a1.54,1.54,0,0,1,.07.42,1.24,1.24,0,0,1,0,.39,1,1,0,0,1-.14.33.93.93,0,0,1-.27.25.58.58,0,0,1-.36.1.57.57,0,0,1-.29-.11,1,1,0,0,1-.24-.23L18.68,13a.9.9,0,0,1-.1-.22,2,2,0,0,1-.08-.26,1.36,1.36,0,0,1,0-.29.93.93,0,0,1,0-.29.67.67,0,0,1,0-.2.58.58,0,0,1,.08-.18,1.09,1.09,0,0,1,.13-.17l.17-.13h.06a.56.56,0,0,1,.18,0,.78.78,0,0,1,.26,0,1,1,0,0,1,.28.13.88.88,0,0,1,.26.28l.05.1,0,.1a2.07,2.07,0,0,0,.17-.24c.06-.09.11-.18.16-.27s.08-.18.12-.27l.08-.22a.19.19,0,0,1,.05-.1.07.07,0,0,1,.06,0s0,0,0,.07a.41.41,0,0,1,0,.12l-.06.19a3.43,3.43,0,0,1-.12.33c-.05.12-.11.24-.17.37A1.63,1.63,0,0,1,20.11,12.16Zm-1.24-.24a.26.26,0,0,0,0,.1,1.3,1.3,0,0,0,.1.15.53.53,0,0,0,.14.12.3.3,0,0,0,.19,0,.54.54,0,0,0,.26-.09l0,0,0,0a.84.84,0,0,1,0-.12,1,1,0,0,0,0-.1l-.11-.19-.14-.15a.6.6,0,0,0-.15-.09.15.15,0,0,0-.13,0,.34.34,0,0,0-.14.15A.61.61,0,0,0,18.87,11.92Zm.19,1c0,.06.07.12.11.17a.71.71,0,0,0,.13.12.22.22,0,0,0,.14.06.21.21,0,0,0,.15,0,.29.29,0,0,0,.13-.14.36.36,0,0,0,.07-.18.7.7,0,0,0,0-.21,1.64,1.64,0,0,0,0-.22l-.06.05-.07,0a.57.57,0,0,1-.38.08.81.81,0,0,1-.37-.16c0,.08.05.16.07.23A1.72,1.72,0,0,0,19.06,12.94Z"/><path d="M21.18,12.53a.18.18,0,0,1,0,.11.12.12,0,0,1-.07,0l-.07,0a.13.13,0,0,1,0-.1l0-.17c0-.09,0-.19,0-.32l0-.39c0-.14,0-.28,0-.41s0-.24,0-.35,0-.17,0-.22l-.11,0s0,0-.08-.07a.3.3,0,0,1-.07-.18,1.14,1.14,0,0,1,0-.26,1.5,1.5,0,0,1,0-.24.34.34,0,0,1,.11-.16.23.23,0,0,1,.24,0,.39.39,0,0,1,.17.13.54.54,0,0,1,.09.17.76.76,0,0,1,0,.21h.05l.09,0,.1-.07a.23.23,0,0,1,.09-.07.2.2,0,0,1,.16,0,.24.24,0,0,1,.14.05.41.41,0,0,1,.13.1l.1.11a.44.44,0,0,1,.09.29c0,.11,0,.24,0,.39a2.81,2.81,0,0,0,0,.3.46.46,0,0,0,.07.25l.1.08a.21.21,0,0,0,.15,0,.42.42,0,0,0,.15-.17,1.69,1.69,0,0,0,.11-.27c0-.11.06-.22.08-.33s0-.23.05-.33a1.59,1.59,0,0,0,0-.29,1.59,1.59,0,0,1,0-.17.12.12,0,0,1,0-.09.08.08,0,0,1,.07,0l.07,0a.24.24,0,0,1,0,.14,2,2,0,0,1,0,.21c0,.1,0,.21,0,.34L23,11a2.62,2.62,0,0,1-.11.4,1.52,1.52,0,0,1-.15.34.67.67,0,0,1-.21.23.55.55,0,0,1-.23.07.49.49,0,0,1-.21,0,.42.42,0,0,1-.16-.11,1.1,1.1,0,0,1-.11-.14.66.66,0,0,1,0-.15c0-.05,0-.11,0-.17v-.18a1.09,1.09,0,0,1,0-.18c0-.13,0-.23,0-.32a.43.43,0,0,0-.05-.19l-.06-.07h-.09l0,0,0,0,0,0-.06,0-.12.05h-.1v1c0,.15,0,.29,0,.42v.49Z"/><path d="M23,7.63a.28.28,0,0,1,0,.13.57.57,0,0,1,0,.14l-.08.1a.1.1,0,0,1-.1,0,.23.23,0,0,1-.2-.1.33.33,0,0,1-.06-.19.52.52,0,0,1,0-.21.37.37,0,0,1,.08-.14.12.12,0,0,1,.11,0,.24.24,0,0,1,.1,0l.09.1A.61.61,0,0,1,23,7.63ZM23,9s0-.06.06-.1l.12-.11.13-.1.07,0,0,.12q0,.11.06.27a3,3,0,0,1,.07.32c0,.11.05.2.06.26l.06.23a1.82,1.82,0,0,0,.07.25,1,1,0,0,0,.08.21.29.29,0,0,0,.09.13l.1,0h.08a.67.67,0,0,0,.18-.25c.05-.13.1-.28.15-.43s.07-.31.1-.47,0-.27.05-.35a.16.16,0,0,1,0-.11.08.08,0,0,1,.07,0,.07.07,0,0,1,.06.05.17.17,0,0,1,0,.12,2.59,2.59,0,0,1,0,.45,5.17,5.17,0,0,1-.11.54,3.14,3.14,0,0,1-.15.49.59.59,0,0,1-.19.28.48.48,0,0,1-.18.07.61.61,0,0,1-.19,0,.62.62,0,0,1-.19-.07.53.53,0,0,1-.14-.12,3.93,3.93,0,0,1-.39-.79A3.18,3.18,0,0,1,23,9.42,1.11,1.11,0,0,1,23,9Z"/><path d="M25.94,9.82a.83.83,0,0,1-.33.12.53.53,0,0,1-.26,0,.58.58,0,0,1-.2-.13L25,9.62a3.13,3.13,0,0,1-.15-.32A3.43,3.43,0,0,1,24.74,9c0-.11-.06-.2-.08-.27a.93.93,0,0,0,0-.14,1.8,1.8,0,0,1,0-.31A.43.43,0,0,1,24.7,8l.09-.08.09-.06.09,0c0,.27.08.49.12.67s.07.32.1.43.07.21.1.28a.55.55,0,0,0,.24.3.3.3,0,0,0,.32,0A.43.43,0,0,0,26,9.23a1.35,1.35,0,0,0,.07-.37L26,8.71a1.87,1.87,0,0,1-.15-.32,1.92,1.92,0,0,1-.11-.31c0-.09,0-.19-.05-.27a.88.88,0,0,1,0-.2.39.39,0,0,1,0-.2.44.44,0,0,1,.12-.11l.07,0,0,0a.06.06,0,0,1,.09,0l.13.24a2.34,2.34,0,0,1,.13.35c0,.1.05.19.07.26a2,2,0,0,1,0,.2.71.71,0,0,1,0,.14.38.38,0,0,0,0,.1,1.83,1.83,0,0,0,.16.22.56.56,0,0,0,.11.11l.09,0,.08,0a.3.3,0,0,0,.12-.16,1.51,1.51,0,0,0,.1-.28q0-.15.06-.33c0-.12,0-.23.05-.33s0-.19,0-.27a1,1,0,0,0,0-.14.19.19,0,0,1,0-.09.05.05,0,0,1,.05,0,.1.1,0,0,1,.05,0,.17.17,0,0,1,0,.1,4.64,4.64,0,0,1,0,.52,3.28,3.28,0,0,1-.08.56,2.08,2.08,0,0,1-.15.48.62.62,0,0,1-.24.3.28.28,0,0,1-.25,0,.82.82,0,0,1-.28-.18,1.08,1.08,0,0,1-.1.42A.71.71,0,0,1,25.94,9.82Z"/><path d="M30,7l-.12-.24c0-.1-.07-.2-.1-.3l-.09-.31-.08-.26a.31.31,0,0,0-.12-.19.15.15,0,0,0-.16,0,.77.77,0,0,0-.11.16,1.28,1.28,0,0,0-.1.38,3,3,0,0,0,0,.6,3.92,3.92,0,0,0,.23.83,1.12,1.12,0,0,1-.13.16l-.07.06c-.07,0-.11.06-.15,0s-.06-.07-.09-.18l-.06-.25q0-.18-.09-.39c0-.13-.08-.26-.13-.4a1.6,1.6,0,0,0-.15-.32.22.22,0,0,0-.1-.11.15.15,0,0,0-.11,0,.35.35,0,0,0-.11.14.82.82,0,0,0-.12.32,2.19,2.19,0,0,0,0,.53,3.4,3.4,0,0,0,.18.76h0l0,.09,0,.08,0,.08-.18.25-.05.05a.11.11,0,0,1-.08,0,.12.12,0,0,1-.08,0,.52.52,0,0,1-.09-.17L27.36,7s0-.09-.05-.13a.37.37,0,0,0,0-.11.28.28,0,0,0-.06-.08l.11-.14.09-.09.07-.07c.1-.06.19,0,.26.21s0,.14.07.26a3.4,3.4,0,0,1,.07-.34,2.81,2.81,0,0,1,.1-.31,1,1,0,0,1,.13-.25.64.64,0,0,1,.19-.18.23.23,0,0,1,.16,0,.33.33,0,0,1,.16.07.61.61,0,0,1,.15.17,1.71,1.71,0,0,1,.13.23c0-.1,0-.2,0-.31s.05-.2.09-.3a2.1,2.1,0,0,1,.13-.26.64.64,0,0,1,.19-.18.34.34,0,0,1,.25,0,.55.55,0,0,1,.21.14,1.1,1.1,0,0,1,.17.25,1.88,1.88,0,0,1,.12.3l.22.74q.09.27.24.18a.53.53,0,0,0,.2-.27A2.83,2.83,0,0,0,30.87,6a3.93,3.93,0,0,0,.06-.48c0-.16,0-.29,0-.39s0-.06,0-.07,0,0,.06,0a.05.05,0,0,1,.05,0,.23.23,0,0,1,0,.11c0,.15,0,.32,0,.51a3.43,3.43,0,0,1-.08.56,1.91,1.91,0,0,1-.17.51.78.78,0,0,1-.32.35l-.14.07-.15,0-.15,0A.39.39,0,0,1,30,7Z"/><path class="cls-1" d="M8.76,23.82l-1,.38-.22-.62,2.72-1,.22.62-1,.37,1.14,3.15L9.89,27Z"/><path class="cls-1" d="M15.62,21.71A2,2,0,1,1,13,20.45,2,2,0,0,1,15.62,21.71ZM15,22a1.33,1.33,0,1,0-.77,1.78A1.33,1.33,0,0,0,15,22Z"/><path class="cls-1" d="M20.19,19.11A1.92,1.92,0,0,1,19,21.66l-1.22.44-1.36-3.77,1.22-.43A1.91,1.91,0,0,1,20.19,19.11Zm-.66.23a1.27,1.27,0,0,0-1.65-.84l-.58.21.91,2.54L18.8,21A1.27,1.27,0,0,0,19.53,19.34Z"/><path class="cls-1" d="M21.54,15.12l.64-.28,3.07,3-.63.29-.73-.71-1.54.7.06,1-.63.29Zm.78,2.31,1.09-.49-1.19-1.17Z"/><path class="cls-1" d="M27.75,16.34l-.61.31-.71-1.41L24.11,13.7l.68-.34,1.68,1.15.06-2,.63-.32L27,14.93Z"/></svg>