<svg id="Layer_1" data-name="Layer 1" xmlns="http://www.w3.org/2000/svg" viewBox="0 0 64 64"><defs><style>.cls-1{stroke:#000;stroke-miterlimit:10;stroke-width:0.29px;}</style></defs><title>logo-64</title><path d="M6.14,49.17a2,2,0,0,1-1,.3,2.39,2.39,0,0,1-1.06-.25,3.61,3.61,0,0,1-1-.71,5,5,0,0,1-.83-1.11A10.38,10.38,0,0,1,1.61,46a11.38,11.38,0,0,1-.44-1.6A10.68,10.68,0,0,1,1,42.74a6.05,6.05,0,0,1,.12-1.61,4.56,4.56,0,0,1,.53-1.39,2.88,2.88,0,0,1,1-1,1.53,1.53,0,0,1,.78-.24,1.41,1.41,0,0,1,.7.16,2,2,0,0,1,.6.45,3.57,3.57,0,0,1,.46.64,4.59,4.59,0,0,1,.29.69,2.28,2.28,0,0,1,.11.66,1.34,1.34,0,0,1-.09.58.8.8,0,0,1-.35.4.67.67,0,0,1-.28.06.93.93,0,0,1-.3-.06,1.3,1.3,0,0,1-.4-.23.89.89,0,0,0,.19-.62,2.83,2.83,0,0,0-.1-.71,5.76,5.76,0,0,0-.33-.81.87.87,0,0,0-.52-.49.69.69,0,0,0-.53.06,1.74,1.74,0,0,0-.69,1.06A6.31,6.31,0,0,0,2,42.19a10.86,10.86,0,0,0,.41,2.35,11.82,11.82,0,0,0,1,2.51,4.27,4.27,0,0,0,.63.89,2.13,2.13,0,0,0,.64.47,1.12,1.12,0,0,0,.6.12,1,1,0,0,0,.5-.15,1.67,1.67,0,0,0,.56-.53,3.12,3.12,0,0,0,.33-.69,3.32,3.32,0,0,0,.17-.71,4.31,4.31,0,0,0,0-.57.36.36,0,0,1,0-.25.15.15,0,0,1,.15-.06.22.22,0,0,1,.16.09.38.38,0,0,1,.09.24,5.56,5.56,0,0,1,0,.91,4.78,4.78,0,0,1-.18.93,3,3,0,0,1-.39.82A2,2,0,0,1,6.14,49.17Z"/><path d="M7.77,37.89a.64.64,0,0,1,0,.28,1.31,1.31,0,0,1-.09.28.64.64,0,0,1-.16.2.24.24,0,0,1-.2.07.54.54,0,0,1-.42-.21.7.7,0,0,1-.12-.4,1.06,1.06,0,0,1,.09-.42.71.71,0,0,1,.17-.28.25.25,0,0,1,.21-.07.67.67,0,0,1,.21.1.91.91,0,0,1,.18.21A.64.64,0,0,1,7.77,37.89Zm-.1,2.9a.38.38,0,0,1,.12-.21L8,40.34l.25-.19.15-.08a1.64,1.64,0,0,1,.07.24c0,.15.08.34.13.55s.09.43.14.65.09.41.12.55.08.29.12.47.09.34.14.5a2.52,2.52,0,0,0,.16.44.68.68,0,0,0,.2.27.52.52,0,0,0,.2.1.41.41,0,0,0,.16,0,1.06,1.06,0,0,0,.36-.52,5.88,5.88,0,0,0,.31-.87c.08-.33.15-.64.21-1s.08-.55.09-.73a.56.56,0,0,1,.09-.22.15.15,0,0,1,.14-.07.16.16,0,0,1,.14.09.44.44,0,0,1,.06.25,7,7,0,0,1-.07.92c-.06.38-.13.75-.22,1.12a7.2,7.2,0,0,1-.32,1,1.24,1.24,0,0,1-.38.57.82.82,0,0,1-.36.15,1.15,1.15,0,0,1-.78-.14.73.73,0,0,1-.29-.26,3.9,3.9,0,0,1-.4-.67,8.88,8.88,0,0,1-.41-.94,7.76,7.76,0,0,1-.31-1A2,2,0,0,1,7.67,40.79Z"/><path d="M15.48,41.46a1,1,0,0,1-.43.15.82.82,0,0,1-.39-.07.75.75,0,0,1-.32-.24,1,1,0,0,1-.21-.4c0-.1-.08-.25-.13-.43s-.09-.37-.15-.58-.12-.42-.19-.62a2.77,2.77,0,0,0-.21-.54,1.18,1.18,0,0,0-.23-.36.19.19,0,0,0-.25,0,.67.67,0,0,0-.27.3,2.22,2.22,0,0,0-.17.48,5.18,5.18,0,0,0-.1.61c0,.22,0,.45,0,.68s.14.48.2.67l.16.51c0,.16.1.29.13.41l.11.33a.51.51,0,0,1-.07.29,1.33,1.33,0,0,1-.22.34,1,1,0,0,1-.26.24c-.08,0-.13,0-.15,0a2.44,2.44,0,0,1-.09-.3c0-.16-.11-.35-.17-.57l-.2-.68q-.11-.36-.21-.69l-.19-.56c-.06-.18-.13-.39-.2-.63s-.16-.5-.24-.78a.75.75,0,0,1,.08-.18l.12-.15a1,1,0,0,1,.15-.14l.16-.08.16,0a.55.55,0,0,1,.18,0c0,.06,0,.14,0,.24s.05.2.08.3a3.69,3.69,0,0,1,.1.39c0-.17,0-.35.07-.54a3.24,3.24,0,0,1,.16-.53,2.54,2.54,0,0,1,.26-.49,1.33,1.33,0,0,1,.39-.36.7.7,0,0,1,.4-.09.86.86,0,0,1,.41.17,1.55,1.55,0,0,1,.37.39,2.3,2.3,0,0,1,.27.63l.15.49c.05.16.1.35.17.56s.12.46.18.72a1.36,1.36,0,0,0,.18.4.19.19,0,0,0,.28.05.88.88,0,0,0,.32-.49,5.61,5.61,0,0,0,.24-.84c.06-.31.11-.62.14-.93s.06-.56.07-.74a.59.59,0,0,1,.07-.27.12.12,0,0,1,.11-.08c.05,0,.09,0,.13.1a.79.79,0,0,1,.07.31c0,.12,0,.28,0,.49s0,.43-.05.68-.07.51-.12.77a4.58,4.58,0,0,1-.19.75,3.43,3.43,0,0,1-.28.64A1.13,1.13,0,0,1,15.48,41.46Z"/><path d="M20.9,35.13a9,9,0,0,1-.17,1.24,7.6,7.6,0,0,1-.36,1.2,5.19,5.19,0,0,1-.54,1,2.33,2.33,0,0,1-.74.7,1.33,1.33,0,0,1-.52.18,1.61,1.61,0,0,1-.65,0,1.8,1.8,0,0,1-.66-.36,2.15,2.15,0,0,1-.57-.79,3,3,0,0,1-.26-1,4.27,4.27,0,0,1,0-1.13,3.45,3.45,0,0,1,.33-1,1.63,1.63,0,0,1,.63-.71.81.81,0,0,1,.66-.14.72.72,0,0,1,.42.37,1.77,1.77,0,0,1,.16.66,2.5,2.5,0,0,1-.06.67,4.48,4.48,0,0,1-.2.62l-.23.55-.25.53-.2.44a1.3,1.3,0,0,0,.33.36,1.14,1.14,0,0,0,.36.16.88.88,0,0,0,.36,0,1,1,0,0,0,.33-.14,1.59,1.59,0,0,0,.58-.62,6.18,6.18,0,0,0,.4-.94,7.61,7.61,0,0,0,.28-1c.07-.33.12-.62.16-.85a.31.31,0,0,1,.09-.18.14.14,0,0,1,.13,0s.08,0,.11.09A.37.37,0,0,1,20.9,35.13Zm-3.42,0a.59.59,0,0,0-.21.28,1.6,1.6,0,0,0-.11.53,3.57,3.57,0,0,0,0,.72,4.52,4.52,0,0,0,.23.85l.15-.33c.06-.12.11-.24.16-.37a3.47,3.47,0,0,0,.25-.92,1.13,1.13,0,0,0-.07-.53.49.49,0,0,0-.2-.25A.25.25,0,0,0,17.48,35.12Z"/><path d="M26.32,34.06a2.59,2.59,0,0,1-.24-.5,6.26,6.26,0,0,1-.21-.61c-.07-.22-.13-.43-.19-.63l-.16-.54a.75.75,0,0,0-.25-.39.31.31,0,0,0-.32,0,1.16,1.16,0,0,0-.22.33,2.38,2.38,0,0,0-.22.77,5.15,5.15,0,0,0,0,1.23,6.4,6.4,0,0,0,.46,1.7,1.64,1.64,0,0,1-.28.34l-.14.12c-.13.09-.22.12-.29.09s-.14-.15-.2-.37-.07-.28-.12-.53-.11-.5-.19-.78-.16-.55-.26-.82a3.26,3.26,0,0,0-.3-.67.42.42,0,0,0-.21-.21.25.25,0,0,0-.22,0,.83.83,0,0,0-.24.27,1.74,1.74,0,0,0-.23.66,4.13,4.13,0,0,0,0,1.09,7.29,7.29,0,0,0,.36,1.57v0a1.21,1.21,0,0,0,.05.18.52.52,0,0,0,.06.16l.06.17-.37.5a.5.5,0,0,1-.1.11.3.3,0,0,1-.15,0,.21.21,0,0,1-.18-.08.81.81,0,0,1-.17-.34L20.91,34c0-.1-.07-.19-.1-.27a1.6,1.6,0,0,0-.1-.23.74.74,0,0,0-.12-.16,2,2,0,0,1,.23-.29,1.72,1.72,0,0,1,.17-.19.58.58,0,0,1,.15-.13c.2-.12.38,0,.52.42,0,.12.09.3.16.53A5.1,5.1,0,0,1,22,33c.06-.23.13-.44.2-.63a2.41,2.41,0,0,1,.28-.53,1.43,1.43,0,0,1,.38-.36.51.51,0,0,1,.34-.07.84.84,0,0,1,.33.16,1.12,1.12,0,0,1,.3.34,2.34,2.34,0,0,1,.25.47c0-.2.06-.41.1-.63a5.61,5.61,0,0,1,.18-.62,3.76,3.76,0,0,1,.27-.53,1.28,1.28,0,0,1,.39-.38.63.63,0,0,1,.5-.09,1,1,0,0,1,.44.29,1.89,1.89,0,0,1,.34.51,5.09,5.09,0,0,1,.25.6L27,33.08c.12.37.28.49.49.36a1,1,0,0,0,.4-.55,4.18,4.18,0,0,0,.24-.91c.06-.32.1-.65.13-1s.06-.59.09-.79a.21.21,0,0,1,.07-.15.12.12,0,0,1,.12,0,.14.14,0,0,1,.12.08.45.45,0,0,1,.06.23c0,.31,0,.65,0,1.05a8.84,8.84,0,0,1-.16,1.15,4.41,4.41,0,0,1-.36,1,1.75,1.75,0,0,1-.65.72l-.29.13a1.06,1.06,0,0,1-.31,0,.68.68,0,0,1-.3-.11A.85.85,0,0,1,26.32,34.06Z"/><path d="M33.7,27.62c0,.18,0,.41-.06.69s-.07.56-.11.85-.08.55-.13.8a2.53,2.53,0,0,1-.17.56,2.44,2.44,0,0,1-.16.23,1.16,1.16,0,0,1-.24.2,1,1,0,0,1-.25.14.82.82,0,0,1-.26,0,.58.58,0,0,1-.26-.11,1.66,1.66,0,0,1-.27-.23,1.9,1.9,0,0,1-.3-.42,2.28,2.28,0,0,1-.16.91,2.32,2.32,0,0,1-.35.63,2.56,2.56,0,0,1-.51.48.65.65,0,0,1-.35.08.75.75,0,0,1-.44-.13,1.43,1.43,0,0,1-.45-.44,2.78,2.78,0,0,1-.38-.81,4.23,4.23,0,0,1-.21-1.35,4.82,4.82,0,0,1,.15-1.23,3.54,3.54,0,0,1,.39-.94,1.17,1.17,0,0,1,.47-.49,1.2,1.2,0,0,1,.53-.1.52.52,0,0,1,.35.18.81.81,0,0,1,.14.6l.21-.18.13-.09a.16.16,0,0,1,.09,0l.06.08a2.64,2.64,0,0,1,.11.25c0,.12.1.29.18.5s.17.49.28.83a1.89,1.89,0,0,0,.06.18l.06.17c0,.05,0,.12.07.19s.06.17.1.28a1.18,1.18,0,0,0,.1.19,1.29,1.29,0,0,0,.15.17.38.38,0,0,0,.18.09.3.3,0,0,0,.21-.06.55.55,0,0,0,.19-.27,4.25,4.25,0,0,0,.14-.52c0-.19.08-.41.12-.64s.07-.45.09-.66,0-.39.07-.56,0-.28,0-.36a.31.31,0,0,1,.09-.19.13.13,0,0,1,.15,0,.26.26,0,0,1,.12.17A1,1,0,0,1,33.7,27.62Zm-2.62,2.14c0-.15-.1-.32-.16-.53s-.12-.4-.18-.58-.12-.33-.17-.45-.09-.17-.11-.14a.38.38,0,0,0-.09.09.56.56,0,0,1-.11.11,1.49,1.49,0,0,0-.14.12,1.14,1.14,0,0,0-.06-.32A.57.57,0,0,0,30,27.9a.44.44,0,0,0-.11-.09c-.1,0-.2.11-.29.37a3.83,3.83,0,0,0-.12,1.22,4.08,4.08,0,0,0,.09.69,4.5,4.5,0,0,0,.21.62,1.9,1.9,0,0,0,.25.45c.09.12.16.19.23.2a.35.35,0,0,0,.3,0,.91.91,0,0,0,.24-.24,2.56,2.56,0,0,0,.17-.37,2.79,2.79,0,0,0,.1-.39,2.67,2.67,0,0,0,.05-.35A.62.62,0,0,0,31.08,29.76Z"/><path d="M37,25a.18.18,0,0,1,.06-.14s.07-.05.11,0,.07,0,.1.07a.49.49,0,0,1,.06.22,7.1,7.1,0,0,1,0,1.11c0,.41-.11.82-.19,1.21a5.71,5.71,0,0,1-.32,1,1.15,1.15,0,0,1-.41.58,1.22,1.22,0,0,1-.62.2,1.24,1.24,0,0,1-.52-.11,1.43,1.43,0,0,1-.42-.31,1.53,1.53,0,0,1-.27-.39q-.09-.16-.27-.6c-.12-.3-.26-.65-.4-1s-.31-.82-.47-1.28-.31-.9-.44-1.34l-.31.24a2.23,2.23,0,0,1-.3.2,2.49,2.49,0,0,1-.63.28,3.19,3.19,0,0,1-.51.11.13.13,0,0,1-.13-.07.58.58,0,0,1,0-.19.49.49,0,0,1,0-.2.23.23,0,0,1,.1-.13l.42-.21a3.3,3.3,0,0,0,.47-.27,3,3,0,0,0,.34-.25l.31-.25c-.1-.36-.18-.68-.24-1a2.21,2.21,0,0,1-.06-.61.26.26,0,0,1,.08-.17,1.66,1.66,0,0,1,.19-.18,1,1,0,0,1,.23-.13.28.28,0,0,1,.2,0,1.2,1.2,0,0,1,.28.38,5.75,5.75,0,0,1,.38.89,4.59,4.59,0,0,1,.76-.39,5.42,5.42,0,0,1,.6-.23l.43-.11.25-.05a.11.11,0,0,1,.13.05A.67.67,0,0,1,36,22a.39.39,0,0,1,0,.21.28.28,0,0,1-.15.15l-.25.09a2.4,2.4,0,0,0-.32.13l-.43.2a5.58,5.58,0,0,0-.56.31l-.13.08-.15.1a3.58,3.58,0,0,0,.11.35,3.49,3.49,0,0,1,.1.38c.07.31.14.65.21,1s.13.7.2,1.13.13.89.2,1.38a1.86,1.86,0,0,0,.39.64.86.86,0,0,0,.38.21.59.59,0,0,0,.38-.07.67.67,0,0,0,.3-.32,3,3,0,0,0,.24-.59c.07-.22.13-.47.19-.72s.1-.5.14-.74.06-.44.08-.63S36.94,25,37,25Z"/><path d="M40.42,24.14a4.31,4.31,0,0,1,.15.86,2.56,2.56,0,0,1-.06.79,2,2,0,0,1-.3.68,1.84,1.84,0,0,1-.56.51,1.1,1.1,0,0,1-1.33,0,1.75,1.75,0,0,1-.47-.47c-.14-.2-.26-.38-.37-.56a2.61,2.61,0,0,1-.2-.44,3.69,3.69,0,0,1-.15-.53,3.81,3.81,0,0,1-.08-.59,3.08,3.08,0,0,1,0-.61.9.9,0,0,1,0-.4,1.14,1.14,0,0,1,.16-.38,1.68,1.68,0,0,1,.27-.34,2,2,0,0,1,.33-.26l.06,0H38a.92.92,0,0,1,.38-.09,1.4,1.4,0,0,1,.53,0,1.81,1.81,0,0,1,.57.26,1.65,1.65,0,0,1,.52.58l.11.2c0,.07.07.14.09.2a4.85,4.85,0,0,0,.34-.5c.12-.18.22-.37.32-.55s.18-.37.25-.55a3.11,3.11,0,0,0,.16-.45.38.38,0,0,1,.11-.2.11.11,0,0,1,.12,0,.24.24,0,0,1,.09.14.7.7,0,0,1,0,.26c0,.06,0,.18-.11.38s-.15.42-.25.67-.22.5-.36.76A3.44,3.44,0,0,1,40.42,24.14Zm-2.55-.5a.7.7,0,0,0,.08.2l.22.32a.83.83,0,0,0,.28.25.7.7,0,0,0,.39.08,1.1,1.1,0,0,0,.53-.19l.1-.06.09-.08c0-.09-.06-.18-.09-.26a.93.93,0,0,0-.08-.2,2.57,2.57,0,0,0-.23-.38,1.74,1.74,0,0,0-.29-.31,1.1,1.1,0,0,0-.29-.19.32.32,0,0,0-.27,0,.82.82,0,0,0-.29.32A1.42,1.42,0,0,0,37.87,23.64Zm.4,2.1a4,4,0,0,0,.23.34,1.22,1.22,0,0,0,.26.25.69.69,0,0,0,.29.13.48.48,0,0,0,.3-.07.75.75,0,0,0,.28-.28,1.16,1.16,0,0,0,.13-.37,1.53,1.53,0,0,0,0-.43,2.4,2.4,0,0,0,0-.46l-.12.1-.14.09a1.21,1.21,0,0,1-.78.16,1.66,1.66,0,0,1-.75-.32c0,.16.09.32.14.46A2.1,2.1,0,0,0,38.27,25.74Z"/><path d="M42.6,24.89a.32.32,0,0,1-.07.23.2.2,0,0,1-.14.1.16.16,0,0,1-.14,0,.34.34,0,0,1-.08-.22c0-.05,0-.17,0-.35s0-.39,0-.64L42,23.15c0-.29-.05-.57-.07-.84s0-.5,0-.71,0-.36,0-.46l-.23-.05c-.05,0-.11-.07-.18-.16a.81.81,0,0,1-.14-.37,2.21,2.21,0,0,1,0-.52,1.93,1.93,0,0,1,.09-.49.5.5,0,0,1,.22-.32.52.52,0,0,1,.5-.06.88.88,0,0,1,.34.29.84.84,0,0,1,.18.33,1.12,1.12,0,0,1,.06.44h.11a.43.43,0,0,0,.17-.07A1.16,1.16,0,0,0,43.2,20a.66.66,0,0,1,.19-.14.49.49,0,0,1,.32-.08.76.76,0,0,1,.3.1,1,1,0,0,1,.26.2,1.41,1.41,0,0,1,.2.24.89.89,0,0,1,.18.58,8.1,8.1,0,0,1,0,.81,6.05,6.05,0,0,0,0,.61.86.86,0,0,0,.15.51.47.47,0,0,0,.19.16c.06,0,.17,0,.32-.08a.83.83,0,0,0,.29-.34,3.63,3.63,0,0,0,.23-.56c.06-.22.12-.44.16-.67s.09-.47.12-.68,0-.41.06-.58,0-.29,0-.36a.29.29,0,0,1,.06-.19.19.19,0,0,1,.14-.08.17.17,0,0,1,.14.07.43.43,0,0,1,.07.28c0,.09,0,.24,0,.44s0,.43-.06.68-.07.53-.12.81a5.18,5.18,0,0,1-.21.82,3.78,3.78,0,0,1-.32.7,1.2,1.2,0,0,1-.43.46,1,1,0,0,1-.48.15,1.11,1.11,0,0,1-.41-.08.94.94,0,0,1-.33-.23,1,1,0,0,1-.23-.29.89.89,0,0,1-.08-.29c0-.11,0-.23,0-.35s0-.25,0-.38,0-.25,0-.37,0-.47,0-.65a.84.84,0,0,0-.1-.4.33.33,0,0,0-.13-.13.17.17,0,0,0-.17,0l-.08.06,0,0-.07.05-.13.08a.59.59,0,0,1-.24.09l-.2,0v1.12c0,.28,0,.57,0,.87v.85c0,.26,0,.48,0,.67A2.3,2.3,0,0,1,42.6,24.89Z"/><path d="M46.4,14.85a.66.66,0,0,1,0,.28.9.9,0,0,1-.08.28,1.16,1.16,0,0,1-.16.21.23.23,0,0,1-.2.06.54.54,0,0,1-.42-.21.67.67,0,0,1-.12-.39,1.16,1.16,0,0,1,.08-.42.76.76,0,0,1,.18-.29.23.23,0,0,1,.21-.06.41.41,0,0,1,.21.1.7.7,0,0,1,.18.2A.64.64,0,0,1,46.4,14.85Zm-.11,2.9a.5.5,0,0,1,.13-.21,2.73,2.73,0,0,1,.25-.23,1.84,1.84,0,0,1,.25-.19.35.35,0,0,1,.15-.08,1,1,0,0,1,.07.23l.13.55c0,.21.09.43.14.66s.08.4.12.54.08.29.12.47.09.34.14.5a2.63,2.63,0,0,0,.16.45.57.57,0,0,0,.2.26.52.52,0,0,0,.2.1.22.22,0,0,0,.16,0,1.08,1.08,0,0,0,.36-.51,5.34,5.34,0,0,0,.3-.88c.09-.32.16-.64.22-.95s.08-.56.09-.73a.48.48,0,0,1,.09-.23.17.17,0,0,1,.14-.07.24.24,0,0,1,.14.09.54.54,0,0,1,.06.25,6,6,0,0,1-.08.93,10.83,10.83,0,0,1-.21,1.11,6.78,6.78,0,0,1-.32,1,1.28,1.28,0,0,1-.38.58.93.93,0,0,1-.36.14,1.34,1.34,0,0,1-.4,0,1.22,1.22,0,0,1-.38-.13.84.84,0,0,1-.29-.27,3.9,3.9,0,0,1-.4-.67,8.07,8.07,0,0,1-.41-.94,7.63,7.63,0,0,1-.31-1A2.3,2.3,0,0,1,46.29,17.75Z"/><path d="M52.36,19.35a1.47,1.47,0,0,1-.68.24,1.18,1.18,0,0,1-.54-.07,1.36,1.36,0,0,1-.41-.26,1.68,1.68,0,0,1-.27-.34,4.37,4.37,0,0,1-.32-.65c-.1-.24-.18-.46-.25-.68s-.12-.39-.16-.55a2.08,2.08,0,0,1-.07-.28,2.09,2.09,0,0,1-.07-.64.8.8,0,0,1,.23-.52l.18-.17.18-.12a.62.62,0,0,1,.19-.07c.09.56.17,1,.25,1.38s.15.65.21.87a4.93,4.93,0,0,0,.2.59,1.35,1.35,0,0,0,.48.62.62.62,0,0,0,.65-.09.89.89,0,0,0,.38-.48,2.44,2.44,0,0,0,.14-.75,2.26,2.26,0,0,1-.23-.31,4.85,4.85,0,0,1-.31-.65,6.46,6.46,0,0,1-.2-.63,3.33,3.33,0,0,1-.12-.56c0-.17,0-.31-.06-.41a.78.78,0,0,1,0-.41.76.76,0,0,1,.24-.23l.13-.08a.3.3,0,0,1,.11,0c.09,0,.15,0,.18,0s.15.27.27.49a3,3,0,0,1,.26.71,4.72,4.72,0,0,1,.15.55,3.77,3.77,0,0,1,.07.4,1.38,1.38,0,0,1,0,.28c0,.08,0,.15,0,.22s.24.33.33.44a1.24,1.24,0,0,0,.24.23.35.35,0,0,0,.18.06.37.37,0,0,0,.17-.05.69.69,0,0,0,.24-.33,4.56,4.56,0,0,0,.19-.56c.05-.22.1-.44.14-.68s.07-.47.09-.68,0-.39.06-.55,0-.25,0-.29a.3.3,0,0,1,.07-.18.11.11,0,0,1,.11-.05.21.21,0,0,1,.11.08.36.36,0,0,1,.05.19,9.85,9.85,0,0,1,0,1.08A8.46,8.46,0,0,1,55,16.6a4.91,4.91,0,0,1-.31,1,1.24,1.24,0,0,1-.49.61.6.6,0,0,1-.53.07,1.76,1.76,0,0,1-.57-.37,2,2,0,0,1-.21.86A1.41,1.41,0,0,1,52.36,19.35Z"/><path d="M60.67,13.57a4.73,4.73,0,0,1-.24-.5c-.07-.19-.14-.4-.21-.61s-.13-.42-.19-.63l-.16-.54a.73.73,0,0,0-.24-.39.29.29,0,0,0-.32,0,.9.9,0,0,0-.23.32,2.17,2.17,0,0,0-.21.77,4.62,4.62,0,0,0,0,1.23,6.81,6.81,0,0,0,.46,1.7,1.38,1.38,0,0,1-.28.34.75.75,0,0,1-.14.12c-.12.09-.22.12-.29.09s-.13-.15-.19-.37-.07-.28-.12-.52-.12-.51-.2-.79-.16-.55-.25-.82a4.68,4.68,0,0,0-.3-.66c-.08-.13-.15-.2-.22-.22a.26.26,0,0,0-.22,0,1,1,0,0,0-.24.27,2.17,2.17,0,0,0-.23.66,3.8,3.8,0,0,0,0,1.09A6.65,6.65,0,0,0,57,15.73v0a1.21,1.21,0,0,1,.05.18l.06.16a.58.58,0,0,1,.06.17l-.36.51-.11.1a.34.34,0,0,1-.15.06.3.3,0,0,1-.18-.09.81.81,0,0,1-.17-.34l-.91-2.93c0-.09-.06-.18-.1-.27a1.6,1.6,0,0,0-.1-.23.74.74,0,0,0-.11-.16,1.46,1.46,0,0,1,.22-.29l.17-.19a.53.53,0,0,1,.15-.12c.21-.13.38,0,.53.41,0,.12.09.3.15.53,0-.23.08-.45.14-.68a4.21,4.21,0,0,1,.2-.63,2.66,2.66,0,0,1,.28-.53,1.27,1.27,0,0,1,.37-.36A.47.47,0,0,1,57.5,11a.71.71,0,0,1,.33.15,1.48,1.48,0,0,1,.31.34,3,3,0,0,1,.25.47c0-.2.06-.41.1-.63a3.38,3.38,0,0,1,.18-.62,2.4,2.4,0,0,1,.27-.53,1.28,1.28,0,0,1,.39-.38.61.61,0,0,1,.5-.08.94.94,0,0,1,.43.28,1.92,1.92,0,0,1,.35.51,3.75,3.75,0,0,1,.24.6l.46,1.53c.12.37.29.49.5.36a1,1,0,0,0,.4-.55,5.91,5.91,0,0,0,.24-.9c.06-.33.1-.66.13-1s.05-.59.08-.79a.22.22,0,0,1,.08-.15.14.14,0,0,1,.12,0,.14.14,0,0,1,.11.08.45.45,0,0,1,.07.23q0,.46,0,1.05A7.4,7.4,0,0,1,62.85,12a4.26,4.26,0,0,1-.36,1,1.73,1.73,0,0,1-.64.72,1.85,1.85,0,0,1-.29.13.83.83,0,0,1-.31,0,.71.71,0,0,1-.31-.1A1,1,0,0,1,60.67,13.57Z"/><path class="cls-1" d="M17.16,48,15,48.79l-.45-1.26,5.57-2,.45,1.26-2.13.77L20.81,54l-1.32.47Z"/><path class="cls-1" d="M31.21,43.7a4.14,4.14,0,1,1-5.33-2.58A4.07,4.07,0,0,1,31.21,43.7Zm-1.34.48a2.72,2.72,0,1,0-1.57,3.66A2.73,2.73,0,0,0,29.87,44.18Z"/><path class="cls-1" d="M40.58,38.36a3.93,3.93,0,0,1-2.43,5.23l-2.48.89-2.78-7.7,2.49-.9A3.93,3.93,0,0,1,40.58,38.36Zm-1.35.49a2.6,2.6,0,0,0-3.38-1.72l-1.19.43,1.88,5.19,1.18-.42A2.61,2.61,0,0,0,39.23,38.85Z"/><path class="cls-1" d="M43.35,30.21l1.3-.59,6.29,6.13-1.29.59-1.49-1.46L45,36.32l.12,2.08L43.85,39Zm1.59,4.73,2.23-1-2.44-2.4Z"/><path class="cls-1" d="M56.06,32.7l-1.25.63-1.46-2.88-4.74-3.16,1.38-.7L53.43,29l.13-4.17,1.3-.65-.26,5.69Z"/></svg>