<svg id="Layer_1" data-name="Layer 1" xmlns="http://www.w3.org/2000/svg" viewBox="0 0 256 256"><defs><style>.cls-1{stroke:#000;stroke-miterlimit:10;stroke-width:1.19px;}</style></defs><title>logo-256</title><path d="M23.65,197.31a8,8,0,0,1-4.15,1.18,9.87,9.87,0,0,1-4.29-1,14.15,14.15,0,0,1-4-2.89,19.32,19.32,0,0,1-3.34-4.47,37.43,37.43,0,0,1-2.46-5.52,44.28,44.28,0,0,1-1.8-6.47,43.62,43.62,0,0,1-.81-6.82,26,26,0,0,1,.5-6.5,18.09,18.09,0,0,1,2.14-5.6,11.6,11.6,0,0,1,4.15-4.11,6.22,6.22,0,0,1,3.14-1,6.2,6.2,0,0,1,2.85.64A8.07,8.07,0,0,1,18,156.61a14.18,14.18,0,0,1,1.87,2.6A17.22,17.22,0,0,1,21,162a10.25,10.25,0,0,1,.48,2.69,5.58,5.58,0,0,1-.38,2.32,3.36,3.36,0,0,1-1.42,1.63,2.39,2.39,0,0,1-1.1.23,4.5,4.5,0,0,1-1.24-.23,5.38,5.38,0,0,1-1.6-.93,3.93,3.93,0,0,0,.78-2.53,11.67,11.67,0,0,0-.43-2.83A19.14,19.14,0,0,0,14.73,159a3.53,3.53,0,0,0-2.09-2,2.76,2.76,0,0,0-2.16.26,6.9,6.9,0,0,0-2.76,4.28A23.62,23.62,0,0,0,7,169.12a43.8,43.8,0,0,0,1.62,9.48,48.47,48.47,0,0,0,4.15,10.14,16.22,16.22,0,0,0,2.54,3.59,8.71,8.71,0,0,0,2.58,1.9,5.08,5.08,0,0,0,2.41.49,4.52,4.52,0,0,0,2-.61A6.84,6.84,0,0,0,24.6,192a12.08,12.08,0,0,0,1.36-2.8,15.09,15.09,0,0,0,.67-2.84,14.64,14.64,0,0,0,.15-2.32,1.48,1.48,0,0,1,.21-1,.65.65,0,0,1,.59-.28,1.07,1.07,0,0,1,.65.37,1.73,1.73,0,0,1,.38,1,23.82,23.82,0,0,1,0,3.67,17.85,17.85,0,0,1-.73,3.73,12.66,12.66,0,0,1-1.58,3.34A8.11,8.11,0,0,1,23.65,197.31Z"/><path d="M30.23,151.76a2.64,2.64,0,0,1,.06,1.13,3.67,3.67,0,0,1-.35,1.12,2.94,2.94,0,0,1-.65.84.94.94,0,0,1-.81.27,2.18,2.18,0,0,1-1.69-.85,2.76,2.76,0,0,1-.47-1.6,4.62,4.62,0,0,1,.33-1.69,3,3,0,0,1,.71-1.15,1,1,0,0,1,.84-.26,1.93,1.93,0,0,1,.86.4,3.45,3.45,0,0,1,.73.82A3.06,3.06,0,0,1,30.23,151.76Zm-.43,11.7a1.73,1.73,0,0,1,.52-.84,11.22,11.22,0,0,1,1-1c.36-.3.7-.55,1-.77a2.34,2.34,0,0,1,.59-.32,3.56,3.56,0,0,1,.29.95c.16.62.33,1.36.52,2.22s.37,1.73.56,2.64.35,1.65.5,2.2.31,1.19.49,1.89.35,1.38.54,2a12.26,12.26,0,0,0,.66,1.78,2.56,2.56,0,0,0,.8,1.08,1.84,1.84,0,0,0,.83.39,1,1,0,0,0,.62-.13,4.31,4.31,0,0,0,1.48-2.06A25.82,25.82,0,0,0,41.42,170c.36-1.3.64-2.58.86-3.84s.34-2.23.39-2.94a1.69,1.69,0,0,1,.35-.9.65.65,0,0,1,.57-.3.77.77,0,0,1,.55.38,1.88,1.88,0,0,1,.24,1,24.67,24.67,0,0,1-.29,3.75c-.22,1.5-.5,3-.87,4.49a27.45,27.45,0,0,1-1.28,4A5.1,5.1,0,0,1,40.39,178a3.66,3.66,0,0,1-1.46.57,4.83,4.83,0,0,1-1.61,0,4.66,4.66,0,0,1-1.53-.54,3.36,3.36,0,0,1-1.16-1A18.42,18.42,0,0,1,33,174.25a39.74,39.74,0,0,1-1.67-3.79,35.76,35.76,0,0,1-1.23-3.91A8.66,8.66,0,0,1,29.8,163.46Z"/><path d="M61.35,166.18a3.87,3.87,0,0,1-1.76.59,3.32,3.32,0,0,1-1.58-.26,3.47,3.47,0,0,1-1.29-1,4.66,4.66,0,0,1-.85-1.61c-.14-.42-.31-1-.49-1.73s-.4-1.51-.63-2.36-.49-1.68-.75-2.51a16.62,16.62,0,0,0-.84-2.18,4.91,4.91,0,0,0-.95-1.42.79.79,0,0,0-1-.17,2.86,2.86,0,0,0-1.06,1.2,8.59,8.59,0,0,0-.69,1.94,18.43,18.43,0,0,0-.41,2.47c-.09.9-.16,1.81-.22,2.74.3,1,.57,1.94.81,2.71s.47,1.45.67,2.07.38,1.15.52,1.62.28.92.42,1.34a1.75,1.75,0,0,1-.26,1.19,6.48,6.48,0,0,1-.9,1.37,4.12,4.12,0,0,1-1,.94c-.33.2-.54.16-.63-.11s-.2-.58-.38-1.22-.41-1.4-.66-2.27-.52-1.79-.81-2.76L45.72,164,45,161.73c-.24-.72-.52-1.55-.83-2.52s-.62-2-1-3.18a3,3,0,0,1,.35-.72,4.65,4.65,0,0,1,.49-.59,3.1,3.1,0,0,1,.58-.56c.21-.12.43-.23.65-.33a3.19,3.19,0,0,1,.66-.21,1.89,1.89,0,0,1,.71,0c0,.23.1.55.19.94s.19.81.31,1.24.27,1,.38,1.54a19.72,19.72,0,0,1,.31-2.14,11.6,11.6,0,0,1,.63-2.18,9.18,9.18,0,0,1,1.06-1.95A5.2,5.2,0,0,1,51,149.61a2.62,2.62,0,0,1,1.61-.37,3.33,3.33,0,0,1,1.65.66,6.29,6.29,0,0,1,1.5,1.6A8.34,8.34,0,0,1,56.89,154l.61,2c.19.63.42,1.38.67,2.25s.5,1.85.74,2.92a5.14,5.14,0,0,0,.72,1.61.77.77,0,0,0,1.15.17A3.69,3.69,0,0,0,62.07,161a21.88,21.88,0,0,0,.94-3.42c.25-1.25.45-2.51.6-3.76s.24-2.25.27-3a2.27,2.27,0,0,1,.27-1.07c.15-.24.3-.35.47-.34s.33.15.5.43a3,3,0,0,1,.31,1.24c0,.48,0,1.14,0,2s-.09,1.75-.21,2.76-.27,2-.46,3.09a21.79,21.79,0,0,1-.77,3,13.68,13.68,0,0,1-1.13,2.55A4.52,4.52,0,0,1,61.35,166.18Z"/><path d="M83.2,140.64a35.32,35.32,0,0,1-.68,5,28.49,28.49,0,0,1-1.44,4.83,20.32,20.32,0,0,1-2.2,4.14,9.66,9.66,0,0,1-3,2.83,5.63,5.63,0,0,1-2.13.71,6.32,6.32,0,0,1-2.61-.19,7.26,7.26,0,0,1-2.67-1.47,9,9,0,0,1-2.31-3.19,12.34,12.34,0,0,1-1-4,18.28,18.28,0,0,1,.13-4.56,13.9,13.9,0,0,1,1.32-4.18,6.77,6.77,0,0,1,2.56-2.86,3.27,3.27,0,0,1,2.63-.55,2.8,2.8,0,0,1,1.7,1.51,6.65,6.65,0,0,1,.66,2.67,10.81,10.81,0,0,1-.26,2.67,15.94,15.94,0,0,1-.79,2.51c-.32.81-.64,1.55-1,2.23s-.67,1.45-1,2.13-.58,1.27-.81,1.79a4.89,4.89,0,0,0,1.35,1.45,3.75,3.75,0,0,0,1.44.62,3.38,3.38,0,0,0,1.45,0,5.37,5.37,0,0,0,1.35-.57,6.58,6.58,0,0,0,2.31-2.53,23.54,23.54,0,0,0,1.64-3.77A34.87,34.87,0,0,0,81,143.7q.44-2,.66-3.45a1.23,1.23,0,0,1,.35-.72.68.68,0,0,1,.52-.2.67.67,0,0,1,.46.37A1.69,1.69,0,0,1,83.2,140.64Zm-13.78,0a2.34,2.34,0,0,0-.85,1.14,7.14,7.14,0,0,0-.47,2.14,13.76,13.76,0,0,0,.11,2.88,14.61,14.61,0,0,0,.93,3.45c.18-.43.37-.87.59-1.35s.43-1,.63-1.47a12.77,12.77,0,0,0,1-3.71,4.65,4.65,0,0,0-.26-2.16,1.92,1.92,0,0,0-.81-1A.88.88,0,0,0,69.42,140.59Z"/><path d="M105.06,136.3a13.57,13.57,0,0,1-1-2c-.31-.79-.6-1.61-.86-2.47s-.52-1.71-.76-2.53-.46-1.55-.65-2.19a2.83,2.83,0,0,0-1-1.56,1.13,1.13,0,0,0-1.28,0,3.78,3.78,0,0,0-.92,1.29,9.45,9.45,0,0,0-.87,3.13,20.27,20.27,0,0,0,.06,5,27.87,27.87,0,0,0,1.86,6.86,5.84,5.84,0,0,1-1.12,1.37,7.24,7.24,0,0,1-.56.49c-.51.35-.91.46-1.18.36s-.54-.6-.79-1.49c-.11-.44-.28-1.14-.49-2.13s-.47-2-.78-3.16-.65-2.22-1-3.3a15.38,15.38,0,0,0-1.2-2.69c-.3-.5-.59-.8-.87-.88a1.11,1.11,0,0,0-.9.16,3.81,3.81,0,0,0-1,1.11,7.4,7.4,0,0,0-.93,2.65,16.63,16.63,0,0,0-.14,4.41A26.67,26.67,0,0,0,90.18,145l-.05-.08c.07.25.15.49.22.73a4.84,4.84,0,0,0,.23.67,4.38,4.38,0,0,1,.24.66l-1.46,2a2.76,2.76,0,0,1-.42.42,1.1,1.1,0,0,1-.62.23,1.05,1.05,0,0,1-.72-.35,3.57,3.57,0,0,1-.7-1.36l-3.67-11.82q-.18-.58-.39-1.11a7.59,7.59,0,0,0-.41-.91,2.61,2.61,0,0,0-.47-.66,10.24,10.24,0,0,1,.9-1.18c.28-.31.51-.56.69-.74a3,3,0,0,1,.61-.52c.84-.5,1.55.06,2.13,1.69.14.48.36,1.2.63,2.14a25.84,25.84,0,0,1,.53-2.76,20.05,20.05,0,0,1,.82-2.55,9.89,9.89,0,0,1,1.12-2.12A5,5,0,0,1,90.92,126a1.92,1.92,0,0,1,1.36-.28,3.22,3.22,0,0,1,1.34.63,5.53,5.53,0,0,1,1.22,1.37,13.49,13.49,0,0,1,1,1.88c.09-.8.22-1.64.4-2.52a15.25,15.25,0,0,1,.72-2.49,10.41,10.41,0,0,1,1.09-2.16,4.93,4.93,0,0,1,1.57-1.52,2.44,2.44,0,0,1,2-.35,4.16,4.16,0,0,1,1.76,1.15,8.42,8.42,0,0,1,1.39,2.07,19,19,0,0,1,1,2.42l1.84,6.15c.5,1.49,1.17,2,2,1.48a4.21,4.21,0,0,0,1.61-2.25,20.65,20.65,0,0,0,1-3.63c.23-1.33.4-2.64.51-4s.22-2.39.34-3.21a1,1,0,0,1,.31-.62.66.66,0,0,1,.49-.16.72.72,0,0,1,.47.34,1.9,1.9,0,0,1,.26.92c0,1.24,0,2.65-.11,4.23a31.16,31.16,0,0,1-.64,4.65,17.55,17.55,0,0,1-1.45,4.19,6.82,6.82,0,0,1-2.62,2.91,6.08,6.08,0,0,1-1.16.53,3.28,3.28,0,0,1-1.25.15,2.76,2.76,0,0,1-1.24-.41A3.58,3.58,0,0,1,105.06,136.3Z"/><path d="M134.86,110.31c-.06.75-.14,1.69-.26,2.81s-.25,2.27-.41,3.41-.34,2.23-.55,3.23A10,10,0,0,1,133,122a4.67,4.67,0,0,1-.67.94,5.64,5.64,0,0,1-.93.83,4.36,4.36,0,0,1-1.05.54,2.91,2.91,0,0,1-1,.16,2.54,2.54,0,0,1-1.07-.44,8.34,8.34,0,0,1-1.06-.92,7.79,7.79,0,0,1-1.2-1.7,9.46,9.46,0,0,1-.65,3.68,10.82,10.82,0,0,1-1.43,2.55,9.9,9.9,0,0,1-2.07,1.93,2.83,2.83,0,0,1-1.41.34,3.43,3.43,0,0,1-1.78-.56,6.33,6.33,0,0,1-1.81-1.76,11.15,11.15,0,0,1-1.51-3.26,17.08,17.08,0,0,1-.86-5.45,20.72,20.72,0,0,1,.61-5,13.55,13.55,0,0,1,1.55-3.79,5.17,5.17,0,0,1,1.92-2,5.5,5.5,0,0,1,2.12-.4,2.14,2.14,0,0,1,1.43.73,3.29,3.29,0,0,1,.56,2.43c.33-.3.6-.54.84-.72s.42-.3.55-.38a1.19,1.19,0,0,1,.34-.15,1,1,0,0,1,.24.32,7.46,7.46,0,0,1,.44,1c.19.49.43,1.17.73,2s.68,2,1.14,3.35c.09.27.17.52.25.74l.23.66.28.78.39,1.11a6.3,6.3,0,0,0,.44.78,3.38,3.38,0,0,0,.6.69,1.43,1.43,0,0,0,.72.35,1.28,1.28,0,0,0,.86-.22,2.21,2.21,0,0,0,.74-1.11,14.2,14.2,0,0,0,.59-2.07c.17-.8.32-1.66.47-2.59s.26-1.81.37-2.66.2-1.61.29-2.27.15-1.14.18-1.45a1.34,1.34,0,0,1,.38-.79.5.5,0,0,1,.58-.11,1.14,1.14,0,0,1,.49.68A3.59,3.59,0,0,1,134.86,110.31ZM124.29,119c-.18-.61-.4-1.33-.64-2.15s-.49-1.6-.75-2.34-.49-1.35-.68-1.82-.34-.67-.43-.58a3.36,3.36,0,0,0-.36.38,2.34,2.34,0,0,1-.45.42c-.19.16-.38.32-.56.5a4,4,0,0,0-.25-1.27,2.34,2.34,0,0,0-.37-.67,1,1,0,0,0-.42-.34c-.43-.07-.82.43-1.18,1.48a15.69,15.69,0,0,0-.47,4.93,11.88,11.88,0,0,0,.36,2.76,16.29,16.29,0,0,0,.82,2.5,8.58,8.58,0,0,0,1,1.83,2.09,2.09,0,0,0,.92.83,1.52,1.52,0,0,0,1.24-.18,3.09,3.09,0,0,0,.94-1,7.92,7.92,0,0,0,.69-1.46,11.28,11.28,0,0,0,.44-1.6,12.22,12.22,0,0,0,.18-1.4A2.35,2.35,0,0,0,124.29,119Z"/><path d="M148,99.59a.79.79,0,0,1,.23-.55.6.6,0,0,1,.45-.19.64.64,0,0,1,.42.29,1.89,1.89,0,0,1,.23.89,30.52,30.52,0,0,1-.14,4.48,42.27,42.27,0,0,1-.77,4.89,24,24,0,0,1-1.27,4.17,4.81,4.81,0,0,1-1.67,2.34,5,5,0,0,1-2.48.78,4.85,4.85,0,0,1-2.12-.45,6,6,0,0,1-1.68-1.23,6.2,6.2,0,0,1-1.1-1.58c-.22-.43-.58-1.25-1.08-2.44s-1-2.58-1.63-4.18-1.22-3.32-1.87-5.16-1.26-3.65-1.8-5.4l-1.25,1a12.59,12.59,0,0,1-1.18.81,11.2,11.2,0,0,1-2.58,1.13,10.38,10.38,0,0,1-2,.43.49.49,0,0,1-.55-.29,1.7,1.7,0,0,1-.12-.73,2.64,2.64,0,0,1,.19-.82,1.1,1.1,0,0,1,.4-.53c.54-.25,1.11-.53,1.71-.83a21.27,21.27,0,0,0,1.91-1.12c.49-.32.95-.65,1.38-1s.84-.66,1.25-1c-.42-1.47-.74-2.77-1-3.91a9.48,9.48,0,0,1-.27-2.49,1.13,1.13,0,0,1,.33-.66,6,6,0,0,1,.77-.73,4.11,4.11,0,0,1,.91-.54,1.16,1.16,0,0,1,.82-.08,4.33,4.33,0,0,1,1.12,1.53A24.4,24.4,0,0,1,135.1,90a26.56,26.56,0,0,1,3.06-1.58c.93-.39,1.74-.69,2.43-.91a13.72,13.72,0,0,1,1.73-.44,9.86,9.86,0,0,0,1-.2.47.47,0,0,1,.53.22,1.68,1.68,0,0,1,.27.73,1.65,1.65,0,0,1-.11.84,1,1,0,0,1-.62.58,6.86,6.86,0,0,1-1,.38,13.12,13.12,0,0,0-1.3.51c-.5.22-1.07.5-1.74.82s-1.42.74-2.27,1.24l-.52.34-.6.39c.15.48.29,1,.45,1.42a14,14,0,0,1,.39,1.52c.28,1.26.57,2.64.86,4.15.25,1.32.52,2.84.8,4.57s.55,3.6.81,5.59a7.1,7.1,0,0,0,1.6,2.56,3.64,3.64,0,0,0,1.5.85,2.39,2.39,0,0,0,1.55-.28,2.73,2.73,0,0,0,1.2-1.28,11.77,11.77,0,0,0,1-2.38c.28-.92.53-1.89.76-2.92s.41-2,.57-3,.26-1.8.35-2.55S147.94,99.89,148,99.59Z"/><path d="M162,96.28a16.33,16.33,0,0,1,.6,3.45,10.59,10.59,0,0,1-.25,3.22,8.27,8.27,0,0,1-1.22,2.74,7,7,0,0,1-2.23,2,4.89,4.89,0,0,1-3,.84,5.08,5.08,0,0,1-2.41-.9,7.93,7.93,0,0,1-1.9-1.93c-.56-.78-1-1.52-1.47-2.24a9.75,9.75,0,0,1-.82-1.77,16.41,16.41,0,0,1-.61-2.15,15.13,15.13,0,0,1-.33-2.39,11.65,11.65,0,0,1,.13-2.44,3.69,3.69,0,0,1,0-1.62,4.93,4.93,0,0,1,.64-1.54,7,7,0,0,1,1.1-1.35,7.46,7.46,0,0,1,1.36-1.06l.24-.09.26,0a4.61,4.61,0,0,1,1.53-.37,6.44,6.44,0,0,1,2.14.17,7.27,7.27,0,0,1,2.32,1.06,7.16,7.16,0,0,1,2.09,2.33c.12.21.26.47.42.79l.38.82a20.5,20.5,0,0,0,1.38-2c.46-.74.88-1.48,1.27-2.24a23.66,23.66,0,0,0,1-2.19,14.38,14.38,0,0,0,.63-1.83,1.68,1.68,0,0,1,.44-.8.42.42,0,0,1,.49-.07.89.89,0,0,1,.37.53,2.24,2.24,0,0,1,0,1,11.27,11.27,0,0,1-.44,1.55c-.26.8-.59,1.7-1,2.69a33.63,33.63,0,0,1-1.45,3.07A14.07,14.07,0,0,1,162,96.28Zm-10.29-2a3.2,3.2,0,0,0,.33.82,13.19,13.19,0,0,0,.87,1.28,3.74,3.74,0,0,0,1.14,1,2.92,2.92,0,0,0,1.57.33,4.62,4.62,0,0,0,2.14-.77,3.3,3.3,0,0,0,.39-.26l.36-.29c-.13-.39-.24-.75-.34-1.06a3.46,3.46,0,0,0-.34-.79,8.21,8.21,0,0,0-.92-1.55,7.56,7.56,0,0,0-1.16-1.27,4,4,0,0,0-1.19-.74,1.19,1.19,0,0,0-1.06.07,3.3,3.3,0,0,0-1.2,1.28A5.81,5.81,0,0,0,151.69,94.26Zm1.62,8.48a16.19,16.19,0,0,0,.92,1.36,5.15,5.15,0,0,0,1.05,1,2.86,2.86,0,0,0,1.16.49,1.75,1.75,0,0,0,1.23-.28,3,3,0,0,0,1.1-1.11,4.88,4.88,0,0,0,.55-1.51,7.08,7.08,0,0,0,.12-1.74,11.4,11.4,0,0,0-.21-1.83c-.17.13-.33.26-.5.37s-.35.24-.56.37a4.62,4.62,0,0,1-3.13.65,6.81,6.81,0,0,1-3-1.27c.17.65.37,1.27.58,1.86A8.72,8.72,0,0,0,153.31,102.74Z"/><path d="M170.78,99.3a1.59,1.59,0,0,1-.27.94.93.93,0,0,1-.57.4.65.65,0,0,1-.58-.22,1.35,1.35,0,0,1-.32-.88c0-.21,0-.67-.1-1.39s-.12-1.59-.21-2.59-.16-2.1-.26-3.28-.18-2.3-.26-3.36-.14-2-.18-2.88-.07-1.46-.09-1.85A8.23,8.23,0,0,1,167,84a1.91,1.91,0,0,1-.7-.63,3.22,3.22,0,0,1-.57-1.49,9.13,9.13,0,0,1-.12-2.1,7.54,7.54,0,0,1,.35-2,2.31,2.31,0,0,1,.9-1.29,2,2,0,0,1,2-.22,3.94,3.94,0,0,1,1.41,1.15,4.43,4.43,0,0,1,.7,1.35,4.59,4.59,0,0,1,.26,1.78,3.14,3.14,0,0,0,.42,0,1.62,1.62,0,0,0,.69-.28,3.9,3.9,0,0,0,.85-.61,3.61,3.61,0,0,1,.76-.56,2.06,2.06,0,0,1,1.31-.33,3.28,3.28,0,0,1,1.21.41,4.81,4.81,0,0,1,1.05.82,9.12,9.12,0,0,1,.81.94,3.82,3.82,0,0,1,.71,2.37c0,1,0,2-.15,3.26a24,24,0,0,0,0,2.44,3.63,3.63,0,0,0,.59,2.07,2.74,2.74,0,0,0,.78.67c.25.13.69,0,1.29-.35A3.38,3.38,0,0,0,182.69,90a12.51,12.51,0,0,0,.91-2.26,27.53,27.53,0,0,0,.67-2.71c.18-1,.34-1.86.46-2.74s.2-1.65.25-2.32.08-1.16.12-1.47a1.16,1.16,0,0,1,.25-.74.81.81,0,0,1,.56-.34.73.73,0,0,1,.58.3,1.8,1.8,0,0,1,.27,1.13c0,.36,0,1-.06,1.75s-.11,1.74-.23,2.77-.28,2.13-.49,3.27a22.77,22.77,0,0,1-.85,3.3,15.09,15.09,0,0,1-1.27,2.83,5,5,0,0,1-1.72,1.83,3.85,3.85,0,0,1-1.94.62,4,4,0,0,1-1.67-.32,4.29,4.29,0,0,1-1.35-.91,4.68,4.68,0,0,1-.91-1.21,3.85,3.85,0,0,1-.34-1.16c-.07-.44-.12-.92-.15-1.42s-.05-1-.05-1.52,0-1-.06-1.5c0-1,0-1.9-.08-2.61a3.74,3.74,0,0,0-.4-1.61,1.4,1.4,0,0,0-.54-.54.64.64,0,0,0-.68,0,2.69,2.69,0,0,0-.32.22,1.33,1.33,0,0,1-.19.14,2.57,2.57,0,0,0-.26.18,4.58,4.58,0,0,1-.53.34,2.43,2.43,0,0,1-1,.36,4.74,4.74,0,0,0-.82.17c0,.24,0,.78,0,1.61s0,1.8,0,2.91,0,2.27,0,3.49,0,2.36,0,3.43,0,2,0,2.7S170.8,99.15,170.78,99.3Z"/><path d="M186.12,58.8a2.76,2.76,0,0,1,0,1.12,3.58,3.58,0,0,1-.35,1.12,3.14,3.14,0,0,1-.65.85,1,1,0,0,1-.81.27,2.21,2.21,0,0,1-1.69-.85,2.78,2.78,0,0,1-.47-1.6,4.89,4.89,0,0,1,.33-1.7,3.07,3.07,0,0,1,.71-1.15,1,1,0,0,1,.84-.26,2,2,0,0,1,.86.4,3.5,3.5,0,0,1,.73.83A3.23,3.23,0,0,1,186.12,58.8Zm-.44,11.69a1.82,1.82,0,0,1,.52-.84,12.7,12.7,0,0,1,1-.94,11.39,11.39,0,0,1,1-.77,2,2,0,0,1,.59-.32,3.76,3.76,0,0,1,.3.95c.15.62.32,1.36.51,2.21s.37,1.74.56,2.65.35,1.64.5,2.2.32,1.18.49,1.88.35,1.39.54,2a11.84,11.84,0,0,0,.66,1.78,2.37,2.37,0,0,0,.8,1.08,1.74,1.74,0,0,0,.83.39.94.94,0,0,0,.62-.12,4.4,4.4,0,0,0,1.48-2.07,27,27,0,0,0,1.22-3.54c.35-1.3.63-2.58.85-3.84a27.2,27.2,0,0,0,.39-3,1.72,1.72,0,0,1,.35-.9.66.66,0,0,1,.57-.29.76.76,0,0,1,.55.37,1.9,1.9,0,0,1,.24,1,24.47,24.47,0,0,1-.29,3.74c-.22,1.51-.5,3-.87,4.49a27.6,27.6,0,0,1-1.28,4A5.13,5.13,0,0,1,196.27,85a3.55,3.55,0,0,1-1.45.58,4.89,4.89,0,0,1-1.62,0,4.83,4.83,0,0,1-1.53-.54A3.18,3.18,0,0,1,190.51,84a17.89,17.89,0,0,1-1.62-2.71c-.6-1.2-1.16-2.46-1.67-3.79A34.44,34.44,0,0,1,186,73.58,8.62,8.62,0,0,1,185.68,70.49Z"/><path d="M210.17,76.94a6.41,6.41,0,0,1-2.74,1,4.9,4.9,0,0,1-2.18-.28,4.82,4.82,0,0,1-1.65-1.06,6.6,6.6,0,0,1-1.11-1.35,20.94,20.94,0,0,1-1.3-2.64c-.4-1-.72-1.87-1-2.74s-.48-1.6-.65-2.21-.27-1-.29-1.17a8.61,8.61,0,0,1-.26-2.56,3.35,3.35,0,0,1,.9-2.12l.74-.65a7.34,7.34,0,0,1,.71-.48,2.32,2.32,0,0,1,.76-.3c.38,2.25.72,4.1,1,5.56s.59,2.64.84,3.53a16.07,16.07,0,0,0,.81,2.36,5.31,5.31,0,0,0,1.93,2.5,2.56,2.56,0,0,0,2.64-.34,3.62,3.62,0,0,0,1.52-2,9.79,9.79,0,0,0,.55-3,8.74,8.74,0,0,1-.9-1.24,16.81,16.81,0,0,1-1.26-2.6c-.33-.9-.61-1.75-.83-2.57a22.26,22.26,0,0,1-.49-2.26c-.1-.69-.17-1.24-.2-1.65a3.24,3.24,0,0,1,.09-1.64,3,3,0,0,1,1-.94,2.84,2.84,0,0,1,.52-.34,2.44,2.44,0,0,1,.41-.16c.37-.11.62-.05.76.19.25.42.6,1.07,1.06,1.95a13.73,13.73,0,0,1,1.08,2.89c.26.85.45,1.59.59,2.2s.23,1.15.28,1.61a6.83,6.83,0,0,1,0,1.15c0,.32,0,.61-.07.87a19.84,19.84,0,0,0,1.33,1.79,4.81,4.81,0,0,0,.95.91,1.22,1.22,0,0,0,.74.25,1.23,1.23,0,0,0,.65-.2,2.79,2.79,0,0,0,1-1.31,13.83,13.83,0,0,0,.76-2.28c.22-.87.41-1.78.56-2.75s.29-1.88.39-2.73.18-1.59.24-2.21.1-1,.11-1.17a1.31,1.31,0,0,1,.28-.75.47.47,0,0,1,.45-.19.74.74,0,0,1,.44.33,1.4,1.4,0,0,1,.21.76,35.91,35.91,0,0,1-.06,4.36,33.6,33.6,0,0,1-.64,4.59,20.35,20.35,0,0,1-1.26,4,5.27,5.27,0,0,1-2,2.47,2.45,2.45,0,0,1-2.12.27,7.18,7.18,0,0,1-2.31-1.5,8.11,8.11,0,0,1-.83,3.48A5.88,5.88,0,0,1,210.17,76.94Z"/><path d="M243.7,53.62a14.62,14.62,0,0,1-1-2c-.31-.78-.59-1.61-.86-2.47s-.51-1.71-.75-2.53-.46-1.55-.66-2.18a2.82,2.82,0,0,0-1-1.57,1.17,1.17,0,0,0-1.29,0,3.89,3.89,0,0,0-.91,1.3,9.53,9.53,0,0,0-.88,3.12,20.79,20.79,0,0,0,.06,5,27.87,27.87,0,0,0,1.86,6.86,5.62,5.62,0,0,1-1.11,1.37c-.21.19-.4.36-.57.49-.51.35-.9.47-1.18.36s-.54-.6-.78-1.49c-.12-.43-.28-1.14-.49-2.13s-.47-2-.79-3.15-.65-2.23-1-3.31a14,14,0,0,0-1.2-2.69,1.85,1.85,0,0,0-.87-.88,1.12,1.12,0,0,0-.9.16,3.83,3.83,0,0,0-.95,1.11,7.38,7.38,0,0,0-.94,2.65,16.63,16.63,0,0,0-.14,4.41,27.7,27.7,0,0,0,1.43,6.31l-.05-.08c.08.25.15.49.22.73a4.93,4.93,0,0,0,.24.67,3.71,3.71,0,0,1,.23.66l-1.46,2a2.37,2.37,0,0,1-.42.42A1.07,1.07,0,0,1,227,67a1,1,0,0,1-.72-.35,3.19,3.19,0,0,1-.7-1.35l-3.67-11.83c-.13-.39-.26-.76-.4-1.11a6.81,6.81,0,0,0-.41-.91,2.55,2.55,0,0,0-.47-.66,11.46,11.46,0,0,1,.91-1.18c.28-.31.51-.56.69-.74a2.94,2.94,0,0,1,.6-.52c.85-.5,1.55.06,2.13,1.69.15.48.36,1.2.64,2.14a25.8,25.8,0,0,1,.52-2.76,22.41,22.41,0,0,1,.82-2.55A10.36,10.36,0,0,1,228,44.76a5.12,5.12,0,0,1,1.53-1.45,1.87,1.87,0,0,1,1.36-.27,3.11,3.11,0,0,1,1.35.62A5.5,5.5,0,0,1,233.47,45a13.06,13.06,0,0,1,1,1.89c.09-.81.23-1.65.4-2.53a16.31,16.31,0,0,1,.72-2.49,11,11,0,0,1,1.1-2.16,4.8,4.8,0,0,1,1.56-1.52,2.45,2.45,0,0,1,2-.35A4.1,4.1,0,0,1,242.05,39a8.45,8.45,0,0,1,1.4,2.07,20.54,20.54,0,0,1,1,2.42l1.84,6.15c.49,1.5,1.16,2,2,1.49a4.24,4.24,0,0,0,1.61-2.25,19.93,19.93,0,0,0,1-3.64,38.3,38.3,0,0,0,.51-4c.11-1.32.23-2.39.35-3.21a.91.91,0,0,1,.3-.61.61.61,0,0,1,.5-.16.69.69,0,0,1,.47.33,1.91,1.91,0,0,1,.25.92c0,1.25,0,2.65-.11,4.23a31.16,31.16,0,0,1-.64,4.65,18,18,0,0,1-1.44,4.19,6.83,6.83,0,0,1-2.62,2.91,6.38,6.38,0,0,1-1.16.53,3.31,3.31,0,0,1-1.25.15,2.76,2.76,0,0,1-1.24-.41A3.48,3.48,0,0,1,243.7,53.62Z"/><path class="cls-1" d="M68.12,192.65l-8.57,3.09-1.82-5.06,22.48-8.1L82,187.64l-8.57,3.09,9.38,26-5.34,1.92Z"/><path class="cls-1" d="M124.83,175.22c3.31,9.19-.87,18.48-9.93,21.75s-18.21-1.22-21.52-10.42.87-18.49,9.93-21.75S121.52,166,124.83,175.22Zm-5.42,1.95c-2.16-6-8-9.56-14.28-7.31s-8.5,8.74-6.33,14.74,8,9.56,14.27,7.3S121.57,183.17,119.41,177.17Z"/><path class="cls-1" d="M162.61,153.67c3.23,9-.71,17.83-9.77,21.09l-10,3.62-11.21-31.1,10-3.62C150.7,140.4,159.38,144.7,162.61,153.67Zm-5.42,2c-2.05-5.69-7.6-9.11-13.64-6.94l-4.8,1.73,7.55,21,4.8-1.72C157.14,167.49,159.22,161.27,157.19,155.63Z"/><path class="cls-1" d="M173.8,120.76l5.25-2.38,25.38,24.77-5.2,2.37-6-5.89-12.72,5.79.49,8.39-5.2,2.36Zm6.41,19.09,9-4.11-9.85-9.68Z"/><path class="cls-1" d="M225.1,130.82l-5,2.55-5.89-11.63L195.05,109l5.56-2.82,13.88,9.54L215,98.87l5.22-2.65-1,23Z"/></svg>