<svg xmlns="http://www.w3.org/2000/svg" width="1.4in" height="28.8" viewBox="0 0 102.7 25.1"><path fill="#253b80" d="M38.4 5.6h-5.7a.8.8 0 0 0-.8.7l-2.3 14.5a.6.6 0 0 0 .5.6h2.7a.8.8 0 0 0 .8-.7l.6-3.9a.8.8 0 0 1 .8-.7h1.8c3.7 0 5.9-1.8 6.5-5.4a4.2 4.2 0 0 0-.8-3.6c-.8-1-2.2-1.5-4.1-1.5zm.6 5.3c-.3 2.1-1.8 2.1-3.3 2.1h-.9l.6-3.8c0-.2.3-.4.5-.4h.4a3.6 3.6 0 0 1 2.5.5 1.8 1.8 0 0 1 .2 1.6zm16.4 0h-2.7c-.3 0-.5.1-.5.4v.7l-.2-.3a4.2 4.2 0 0 0-3.2-1.1 6.3 6.3 0 0 0-6.1 5.5 5.3 5.3 0 0 0 1 4.2 4.6 4.6 0 0 0 3.3 1.3 5.4 5.4 0 0 0 3.8-1.5v.7a.4.4 0 0 0 .1.5h2.8a.8.8 0 0 0 .8-.7l1.4-9.3a.5.5 0 0 0-.5-.4zm-3.8 5.3a3.1 3.1 0 0 1-3.1 2.6 2.3 2.3 0 0 1-1.8-.8 2.1 2.1 0 0 1-.4-1.9 3 3 0 0 1 3-2.6 2.1 2.1 0 0 1 1.8.7 2.9 2.9 0 0 1 .5 2zm18.3-5.3h-2.8a.7.7 0 0 0-.6.3l-3.8 5.6-1.6-5.4a.9.9 0 0 0-.8-.5h-2.6a.5.5 0 0 0-.5.5l3 8.8-2.8 4a.5.5 0 0 0 .1.7h3a1 1 0 0 0 .7-.4l9.1-13.1c.1-.3 0-.5-.3-.7z"/><path fill="#179bd7" d="M78.9 5.6h-5.7a.7.7 0 0 0-.7.7l-2.3 14.5a.4.4 0 0 0 .1.5h3.2a.6.6 0 0 0 .6-.5l.6-4.1a.8.8 0 0 1 .8-.7h1.8c3.8 0 5.9-1.8 6.5-5.4a4.7 4.7 0 0 0-.7-3.6 5.3 5.3 0 0 0-4.2-1.4zm.7 5.3c-.3 2.1-1.9 2.1-3.4 2.1h-.9l.6-3.8c0-.2.3-.4.5-.4h.4a3.6 3.6 0 0 1 2.5.5 2.2 2.2 0 0 1 .3 1.6zm16.3 0h-2.7c-.3 0-.5.1-.5.4v.7l-.2-.3a4.2 4.2 0 0 0-3.2-1.1 6.3 6.3 0 0 0-6.1 5.5 5.3 5.3 0 0 0 1 4.2 4.5 4.5 0 0 0 3.5 1.3 5.1 5.1 0 0 0 3.7-1.5v.7a.6.6 0 0 0 .5.6h2.4a.8.8 0 0 0 .8-.7l1.5-9.3a.5.5 0 0 0-.5-.5zm-3.8 5.3a3.1 3.1 0 0 1-3.1 2.6 2.3 2.3 0 0 1-1.8-.8 2.5 2.5 0 0 1-.4-1.9 3 3 0 0 1 3-2.6 2.1 2.1 0 0 1 1.8.7 2.1 2.1 0 0 1 .5 2zm7-10.2l-2.3 14.8c-.1.3.1.5.4.6h2.4a.8.8 0 0 0 .8-.7l2.3-14.5a.6.6 0 0 0-.5-.6h-2.6c-.2 0-.5.2-.5.4z"/><path fill="#253b80" d="M6 24.2l.5-2.7H.9L4.1 1.1c0-.1 0-.1.1-.2h7.9c2.6 0 4.4.5 5.4 1.6a2.8 2.8 0 0 1 .8 1.5 8.1 8.1 0 0 1 0 2.2v.6l.4.2a2.2 2.2 0 0 1 .9.7 2.9 2.9 0 0 1 .7 1.6 6 6 0 0 1-.1 2.3 12.2 12.2 0 0 1-.9 2.7 5 5 0 0 1-1.5 1.7 5.1 5.1 0 0 1-2.1 1 10.7 10.7 0 0 1-2.5.3h-.6a1.7 1.7 0 0 0-1.2.4 1.4 1.4 0 0 0-.6 1.1v.2l-.8 4.9v.2H6z"/><path fill="#179bd7" d="M19.1 6.4v.4c-1.1 5.3-4.6 7.1-9.1 7.1H7.7a.9.9 0 0 0-1 1l-1.2 7.4-.4 2.1c0 .3.3.7.6.7h4.1a.9.9 0 0 0 .9-.9V24l.7-4.8v-.3a1 1 0 0 1 1-.8h.6c3.9 0 7-1.6 7.9-6.2.3-1.9.2-3.5-.8-4.7a3.9 3.9 0 0 0-1-.8z"/><path fill="#222d65" d="M18.1 5.9H8.5a.8.8 0 0 0-.5.7l-1.3 8v.3a.9.9 0 0 1 1-1H10c4.5 0 8-1.8 9.1-7.1v-.4l-.8-.4z"/><path fill="#253b80" d="M8 6.4a.8.8 0 0 1 .5-.7h9.8l.8.4a4.9 4.9 0 0 0-1-4.5c-1.2-1-3.3-1.6-6-1.6H4.4a1 1 0 0 0-1.1.9L0 21.5c-.1.4.2.7.6.8h4.9l1.2-7.7z"/></svg>