<svg xmlns="http://www.w3.org/2000/svg" width="89" height="79" viewBox="0 0 89 79"><title>Artboard 7</title><g id="_01-SINGLE-GREY" data-name="01-SINGLE-GREY"><path id="Twitter" d="M67.8,29.6a14.7,14.7,0,0,1-4.9,1.9A7.7,7.7,0,0,0,57.3,29a7.8,7.8,0,0,0-7.7,7.9,11,11,0,0,0,.2,1.8,21.5,21.5,0,0,1-15.9-8.2,8.4,8.4,0,0,0-1,3.9A8,8,0,0,0,36.3,41a7.4,7.4,0,0,1-3.5-1h0A7.8,7.8,0,0,0,39,47.8a6.4,6.4,0,0,1-2,.3H35.5a7.7,7.7,0,0,0,7.2,5.4,14.5,14.5,0,0,1-9.5,3.4H31.3a21.9,21.9,0,0,0,11.8,3.6C57.3,60.3,65,48.2,65,37.8v-1a14.9,14.9,0,0,0,3.8-4.1A13.9,13.9,0,0,1,64.4,34,7.9,7.9,0,0,0,67.8,29.6Z"/></g></svg>