<svg xmlns="http://www.w3.org/2000/svg" width="37.5" height="31.2" viewBox="0 0 37.5 31.2"><title>Artboard 12</title><g id="_01-SINGLE-GREY" data-name="01-SINGLE-GREY"><path id="Twitter" d="M36.4.6a16.1,16.1,0,0,1-4.9,1.9A7.7,7.7,0,0,0,25.9,0a7.8,7.8,0,0,0-7.7,7.9,11,11,0,0,0,.2,1.8A21.9,21.9,0,0,1,2.6,1.4a7.9,7.9,0,0,0-1,4A8.1,8.1,0,0,0,5,12a7.9,7.9,0,0,1-3.5-1h0a7.8,7.8,0,0,0,6.2,7.7,7.6,7.6,0,0,1-2.1.3l-1.4-.2a7.7,7.7,0,0,0,7.2,5.5,15.6,15.6,0,0,1-9.6,3.4H0a21.5,21.5,0,0,0,11.8,3.5c14.1,0,21.8-12,21.8-22.4v-1a16.9,16.9,0,0,0,3.9-4.1A16.6,16.6,0,0,1,33,4.9,7.7,7.7,0,0,0,36.4.6Z"/></g></svg>